<svg width="461" height="243" viewBox="0 0 461 243" fill="none" xmlns="http://www.w3.org/2000/svg">
<rect x="0.1" y="0.1" width="460.8" height="242.8" rx="15.9" fill="#050505" fill-opacity="0.5" stroke="#AAAAAA" stroke-width="0.2"/>
<mask id="path-2-inside-1_21_540" fill="white">
<path d="M6 7H443V26H6V7Z"/>
</mask>
<path d="M443 26V25.5H6V26V26.5H443V26Z" fill="#262626" mask="url(#path-2-inside-1_21_540)"/>
<mask id="path-4-inside-2_21_540" fill="white">
<path d="M6 37H443V56H6V37Z"/>
</mask>
<path d="M443 56V55.5H6V56V56.5H443V56Z" fill="#262626" mask="url(#path-4-inside-2_21_540)"/>
<mask id="path-6-inside-3_21_540" fill="white">
<path d="M6 67H443V86H6V67Z"/>
</mask>
<path d="M443 86V85.5H6V86V86.5H443V86Z" fill="#262626" mask="url(#path-6-inside-3_21_540)"/>
<mask id="path-8-inside-4_21_540" fill="white">
<path d="M6 97H443V116H6V97Z"/>
</mask>
<path d="M443 116V115.5H6V116V116.5H443V116Z" fill="#262626" mask="url(#path-8-inside-4_21_540)"/>
<mask id="path-10-inside-5_21_540" fill="white">
<path d="M6 127H443V146H6V127Z"/>
</mask>
<path d="M443 146V145.5H6V146V146.5H443V146Z" fill="#262626" mask="url(#path-10-inside-5_21_540)"/>
<mask id="path-12-inside-6_21_540" fill="white">
<path d="M6 157H443V176H6V157Z"/>
</mask>
<path d="M443 176V175.5H6V176V176.5H443V176Z" fill="#262626" mask="url(#path-12-inside-6_21_540)"/>
<mask id="path-14-inside-7_21_540" fill="white">
<path d="M6 187H443V206H6V187Z"/>
</mask>
<path d="M443 206V205.5H6V206V206.5H443V206Z" fill="#262626" mask="url(#path-14-inside-7_21_540)"/>
<mask id="path-16-inside-8_21_540" fill="white">
<path d="M6 217H443V236H6V217Z"/>
</mask>
<path d="M443 236V235.5H6V236V236.5H443V236Z" fill="#262626" mask="url(#path-16-inside-8_21_540)"/>
<path d="M229.072 102.027C229.072 104.46 229.072 106.897 229.072 109.329C229.072 110.69 228.713 111.053 227.348 111.08H212.66C211.303 111.08 210.91 110.677 211.036 109.307C211.382 105.21 213.159 101.366 216.055 98.4477C218.977 95.3653 222.915 93.443 227.142 93.0352C228.722 92.8733 229.068 93.2365 229.072 94.8117C229.076 97.2182 229.072 99.6203 229.072 102.027Z" fill="#278A2A"/>
<path d="M229.072 122.823C229.072 125.23 229.072 127.636 229.072 130.043C229.072 131.67 228.731 132.034 227.099 131.854C222.444 131.391 218.162 129.103 215.189 125.492C212.743 122.667 211.277 119.126 211.01 115.398C210.927 114.313 211.347 113.849 212.445 113.845C217.477 113.827 222.51 113.827 227.545 113.845C228.683 113.845 229.05 114.256 229.059 115.442C229.081 117.905 229.072 120.364 229.072 122.823Z" fill="#278A2A"/>
<path d="M249.597 122.574C249.597 125.011 249.597 127.444 249.597 129.876C249.597 131.272 249.216 131.627 247.808 131.627C242.968 131.627 238.126 131.627 233.281 131.627C231.793 131.627 231.4 131.128 231.583 129.618C232.384 123.103 235.793 118.395 241.538 115.35C243.56 114.314 245.775 113.706 248.044 113.565C249.046 113.486 249.584 114.002 249.593 115.031C249.606 117.542 249.597 120.058 249.597 122.574Z" fill="#EAB308"/>
<path d="M240.934 111.154C238.475 111.154 236.011 111.154 233.552 111.154C232.27 111.154 231.92 110.804 231.92 109.531C231.92 104.557 231.92 99.5809 231.92 94.6017C231.92 93.3809 232.476 92.9652 233.714 93.1096C238.253 93.5492 242.453 95.7004 245.462 99.1259C248.101 102.075 249.7 105.809 250.013 109.754C250.1 110.629 249.523 111.163 248.481 111.167C245.966 111.163 243.45 111.154 240.934 111.154Z" fill="#278A2A"/>
<rect x="294" y="50" width="142" height="117" rx="12" fill="#151515"/>
<rect x="304" y="69" width="48" height="7" rx="1" fill="#242424"/>
<rect x="357" y="69" width="68" height="7" rx="1" fill="#242424"/>
<rect x="304" y="87" width="121" height="7" rx="1" fill="#242424"/>
<rect x="304" y="102" width="121" height="7" rx="1" fill="#242424"/>
<rect x="383" y="117" width="42" height="7" rx="1" fill="#242424"/>
<rect x="304" y="117" width="76" height="7" rx="1" fill="#242424"/>
<rect x="305" y="132" width="121" height="7" rx="1" fill="#242424"/>
<rect x="26" y="33" width="142" height="190" rx="12" fill="#151515"/>
<rect x="36" y="46" width="121" height="7" rx="1" fill="#242424"/>
<rect x="36" y="64" width="48" height="7" rx="1" fill="#242424"/>
<rect x="89" y="64" width="68" height="7" rx="1" fill="#242424"/>
<rect x="36" y="82" width="121" height="7" rx="1" fill="#242424"/>
<rect x="36" y="100" width="121" height="7" rx="1" fill="#242424"/>
<rect x="36" y="118" width="121" height="7" rx="1" fill="#242424"/>
<rect x="115" y="136" width="42" height="7" rx="1" fill="#242424"/>
<rect x="36" y="136" width="76" height="7" rx="1" fill="#242424"/>
<rect x="36" y="154" width="121" height="7" rx="1" fill="#242424"/>
<rect x="37" y="172" width="121" height="7" rx="1" fill="#242424"/>
<rect x="36" y="190" width="121" height="7" rx="1" fill="#242424"/>
<path d="M83.938 210.06C82.726 210.06 82.21 209.478 82.21 208.722V208.626H82.654V208.704C82.654 209.334 82.96 209.652 83.926 209.652C84.826 209.652 85.186 209.406 85.186 208.836C85.186 208.326 84.832 208.086 84.22 208.086H83.134V207.72H84.13C84.736 207.72 85.066 207.498 85.066 207.042C85.066 206.562 84.772 206.328 83.908 206.328C82.99 206.328 82.654 206.646 82.654 207.276V207.33H82.21V207.258C82.21 206.514 82.744 205.92 83.938 205.92C84.922 205.92 85.492 206.31 85.492 206.976C85.492 207.426 85.228 207.762 84.724 207.852V207.894C85.294 208.002 85.618 208.35 85.618 208.884C85.618 209.634 84.976 210.06 83.938 210.06ZM87.8846 210.06C86.7386 210.06 86.0186 209.286 86.0186 207.99C86.0186 206.7 86.7386 205.92 87.8846 205.92C89.0246 205.92 89.7446 206.7 89.7446 207.99C89.7446 209.286 89.0246 210.06 87.8846 210.06ZM87.8846 209.652C88.8146 209.652 89.2946 209.112 89.2946 207.99C89.2946 206.868 88.8146 206.328 87.8846 206.328C86.9486 206.328 86.4686 206.868 86.4686 207.99C86.4686 209.112 86.9486 209.652 87.8846 209.652ZM92.033 210.06C90.887 210.06 90.167 209.286 90.167 207.99C90.167 206.7 90.887 205.92 92.033 205.92C93.173 205.92 93.893 206.7 93.893 207.99C93.893 209.286 93.173 210.06 92.033 210.06ZM92.033 209.652C92.963 209.652 93.443 209.112 93.443 207.99C93.443 206.868 92.963 206.328 92.033 206.328C91.097 206.328 90.617 206.868 90.617 207.99C90.617 209.112 91.097 209.652 92.033 209.652ZM95.993 211.02H95.567V207.036H95.951V207.87H95.999C96.131 207.336 96.575 206.976 97.277 206.976C98.201 206.976 98.729 207.618 98.729 208.518C98.729 209.418 98.207 210.06 97.265 210.06C96.611 210.06 96.137 209.7 95.999 209.13H95.993V211.02ZM95.993 208.572C95.993 209.274 96.455 209.67 97.151 209.67C97.841 209.67 98.297 209.376 98.297 208.518C98.297 207.66 97.835 207.372 97.163 207.372C96.425 207.372 95.993 207.786 95.993 208.518V208.572ZM100.075 210.06C99.4926 210.06 99.0966 209.784 99.0966 209.304C99.0966 208.818 99.4986 208.608 100.051 208.548L101.461 208.392V208.164C101.461 207.588 101.209 207.36 100.561 207.36C99.9246 207.36 99.5886 207.588 99.5886 208.11V208.134H99.1626V208.11C99.1626 207.486 99.6786 206.976 100.591 206.976C101.491 206.976 101.875 207.492 101.875 208.146V210H101.491V209.202H101.461C101.287 209.748 100.765 210.06 100.075 210.06ZM99.5226 209.274C99.5226 209.574 99.7206 209.73 100.171 209.73C100.891 209.73 101.461 209.412 101.461 208.698V208.674L100.183 208.818C99.7386 208.86 99.5226 208.968 99.5226 209.274ZM103.847 209.76C102.965 209.76 102.425 209.178 102.425 208.368C102.425 207.558 102.983 206.976 103.895 206.976C104.519 206.976 105.011 207.27 105.131 207.798H105.161V207.036H105.545V209.718C105.545 210.696 104.927 211.08 104.033 211.08C103.229 211.08 102.617 210.678 102.617 209.988H103.043C103.043 210.51 103.391 210.714 104.051 210.714C104.819 210.714 105.119 210.48 105.119 209.742V208.968H105.089C104.969 209.424 104.531 209.76 103.847 209.76ZM102.851 208.368C102.851 209.124 103.319 209.382 103.961 209.382C104.693 209.382 105.119 209.016 105.119 208.386V208.284C105.119 207.702 104.675 207.354 103.991 207.354C103.325 207.354 102.851 207.612 102.851 208.368ZM107.676 210.06C106.722 210.06 106.116 209.46 106.116 208.518C106.116 207.618 106.716 206.976 107.67 206.976C108.54 206.976 109.158 207.48 109.158 208.362C109.158 208.47 109.146 208.56 109.128 208.638H106.518C106.542 209.304 106.884 209.706 107.67 209.706C108.366 209.706 108.69 209.448 108.69 209.016V208.974H109.116V209.016C109.116 209.634 108.504 210.06 107.676 210.06ZM107.664 207.33C106.896 207.33 106.548 207.726 106.518 208.374H108.756C108.756 208.344 108.756 208.314 108.756 208.284C108.756 207.66 108.36 207.33 107.664 207.33ZM111.025 210.06C110.113 210.06 109.585 209.694 109.585 209.01V208.998H110.011V209.034C110.011 209.532 110.305 209.706 111.031 209.706C111.697 209.706 111.925 209.55 111.925 209.208C111.925 208.896 111.739 208.794 111.247 208.716L110.455 208.602C109.915 208.53 109.573 208.32 109.573 207.828C109.573 207.306 110.071 206.976 110.887 206.976C111.739 206.976 112.291 207.336 112.291 208.032V208.044H111.865V208.014C111.865 207.57 111.631 207.33 110.875 207.33C110.251 207.33 109.993 207.48 109.993 207.834C109.993 208.14 110.149 208.248 110.641 208.32L111.367 208.422C112.003 208.512 112.345 208.728 112.345 209.208C112.345 209.766 111.793 210.06 111.025 210.06Z" fill="white"/>
<path d="M353.95 155.06C352.846 155.06 352.222 154.568 352.222 153.824V153.74H352.66V153.824C352.66 154.4 353.116 154.67 353.956 154.67C354.706 154.67 355.132 154.412 355.132 153.746C355.132 153.092 354.718 152.84 353.962 152.84C353.356 152.84 352.984 152.966 352.69 153.164L352.672 153.158V153.164L352.276 153.104L352.48 150.98H355.408V151.37H352.852L352.696 152.906L352.726 152.912C352.984 152.696 353.488 152.486 354.088 152.486C354.97 152.486 355.582 152.924 355.582 153.746C355.582 154.556 354.958 155.06 353.95 155.06ZM357.879 155.06C356.733 155.06 356.013 154.286 356.013 152.99C356.013 151.7 356.733 150.92 357.879 150.92C359.019 150.92 359.739 151.7 359.739 152.99C359.739 154.286 359.019 155.06 357.879 155.06ZM357.879 154.652C358.809 154.652 359.289 154.112 359.289 152.99C359.289 151.868 358.809 151.328 357.879 151.328C356.943 151.328 356.463 151.868 356.463 152.99C356.463 154.112 356.943 154.652 357.879 154.652ZM361.839 155H361.413V150.98H363.261C364.131 150.98 364.743 151.478 364.743 152.336C364.743 153.2 364.131 153.698 363.261 153.698H361.839V155ZM363.225 151.37H361.839V153.308H363.225C363.933 153.308 364.311 153.02 364.311 152.336C364.311 151.664 363.933 151.37 363.225 151.37ZM366.026 155.06C365.444 155.06 365.048 154.784 365.048 154.304C365.048 153.818 365.45 153.608 366.002 153.548L367.412 153.392V153.164C367.412 152.588 367.16 152.36 366.512 152.36C365.876 152.36 365.54 152.588 365.54 153.11V153.134H365.114V153.11C365.114 152.486 365.63 151.976 366.542 151.976C367.442 151.976 367.826 152.492 367.826 153.146V155H367.442V154.202H367.412C367.238 154.748 366.716 155.06 366.026 155.06ZM365.474 154.274C365.474 154.574 365.672 154.73 366.122 154.73C366.842 154.73 367.412 154.412 367.412 153.698V153.674L366.134 153.818C365.69 153.86 365.474 153.968 365.474 154.274ZM369.798 154.76C368.916 154.76 368.376 154.178 368.376 153.368C368.376 152.558 368.934 151.976 369.846 151.976C370.47 151.976 370.962 152.27 371.082 152.798H371.112V152.036H371.496V154.718C371.496 155.696 370.878 156.08 369.984 156.08C369.18 156.08 368.568 155.678 368.568 154.988H368.994C368.994 155.51 369.342 155.714 370.002 155.714C370.77 155.714 371.07 155.48 371.07 154.742V153.968H371.04C370.92 154.424 370.482 154.76 369.798 154.76ZM368.802 153.368C368.802 154.124 369.27 154.382 369.912 154.382C370.644 154.382 371.07 154.016 371.07 153.386V153.284C371.07 152.702 370.626 152.354 369.942 152.354C369.276 152.354 368.802 152.612 368.802 153.368ZM373.627 155.06C372.673 155.06 372.067 154.46 372.067 153.518C372.067 152.618 372.667 151.976 373.621 151.976C374.491 151.976 375.109 152.48 375.109 153.362C375.109 153.47 375.097 153.56 375.079 153.638H372.469C372.493 154.304 372.835 154.706 373.621 154.706C374.317 154.706 374.641 154.448 374.641 154.016V153.974H375.067V154.016C375.067 154.634 374.455 155.06 373.627 155.06ZM373.615 152.33C372.847 152.33 372.499 152.726 372.469 153.374H374.707C374.707 153.344 374.707 153.314 374.707 153.284C374.707 152.66 374.311 152.33 373.615 152.33ZM376.976 155.06C376.064 155.06 375.536 154.694 375.536 154.01V153.998H375.962V154.034C375.962 154.532 376.256 154.706 376.982 154.706C377.648 154.706 377.876 154.55 377.876 154.208C377.876 153.896 377.69 153.794 377.198 153.716L376.406 153.602C375.866 153.53 375.524 153.32 375.524 152.828C375.524 152.306 376.022 151.976 376.838 151.976C377.69 151.976 378.242 152.336 378.242 153.032V153.044H377.816V153.014C377.816 152.57 377.582 152.33 376.826 152.33C376.202 152.33 375.944 152.48 375.944 152.834C375.944 153.14 376.1 153.248 376.592 153.32L377.318 153.422C377.954 153.512 378.296 153.728 378.296 154.208C378.296 154.766 377.744 155.06 376.976 155.06Z" fill="white"/>
</svg>
