<svg xmlns="http://www.w3.org/2000/svg" xmlns:xlink="http://www.w3.org/1999/xlink" viewBox="0 0 5000 1993"><defs><style>.cls-1{fill:url(#linear-gradient);}.cls-2{fill:url(#linear-gradient-2);}.cls-3{fill:url(#linear-gradient-3);}.cls-4{mask:url(#mask);}.cls-5{fill:#0cf;}.cls-5,.cls-7,.cls-9{fill-rule:evenodd;}.cls-6{mask:url(#mask-2);}.cls-7{fill:#00ff6d;}.cls-8{mask:url(#mask-3);}.cls-9{fill:#f766ff;}</style><linearGradient id="linear-gradient" x1="-2256.76" y1="1330.5" x2="-7124.9" y2="701.65" gradientTransform="translate(7342.34)" gradientUnits="userSpaceOnUse"><stop offset="0" stop-color="#fff"/><stop offset="1"/></linearGradient><linearGradient id="linear-gradient-2" x1="-7667.03" y1="2757.97" x2="-2145.33" y2="-91.09" xlink:href="#linear-gradient"/><linearGradient id="linear-gradient-3" x1="-8938.09" y1="2809.46" x2="-2603.1" y2="564.45" xlink:href="#linear-gradient"/><mask id="mask" x="0" y="0" width="5000" height="1993" maskUnits="userSpaceOnUse"><rect class="cls-1" width="5000" height="1993"/></mask><mask id="mask-2" x="0" y="608" width="5000" height="1385" maskUnits="userSpaceOnUse"><rect class="cls-2" y="608" width="5000" height="1385"/></mask><mask id="mask-3" x="0" y="723" width="5000" height="1270" maskUnits="userSpaceOnUse"><rect class="cls-3" y="723" width="5000" height="1270"/></mask></defs><title>Asset 2lucidvibesbg</title><g id="Layer_2" data-name="Layer 2"><g id="Layer_1-2" data-name="Layer 1"><g class="cls-4"><path class="cls-5" d="M5000,1541C3014.77,2893.45,2633-1855.52,0,847.22V1993H5000Z"/></g><g class="cls-6"><path class="cls-7" d="M5000,1617.29V810.91c-769.86-235.15-1398.65,247-1968.54,347.34-264.12,46.51-515.6,11-762.6-215.92-626-575.14-1332.37-270.82-2026.92-95.64C161.09,867.09,80.39,885.73,0,901V1993H5000Z"/></g><g class="cls-8"><path class="cls-9" d="M2127.29,1168.15C1495.94,1551.8,922.55,1994.36,0,1653.71V1993H5000V1259.76q-122.55-76.21-238.81-140.16C3662.84,514.71,2971.43,700.34,2372.52,1026c-83.25,45.27-164.71,93.24-245.23,142.17"/></g></g></g></svg>