<svg xmlns="http://www.w3.org/2000/svg" xmlns:xlink="http://www.w3.org/1999/xlink" viewBox="0 0 5000 1270"><defs><style>.cls-1{fill:url(#linear-gradient);}.cls-2{fill:url(#linear-gradient-2);}.cls-3{fill:url(#linear-gradient-3);}.cls-4{mask:url(#mask);}.cls-5{fill:#0cf;}.cls-5,.cls-7,.cls-9{fill-rule:evenodd;}.cls-6{mask:url(#mask-2);}.cls-7{fill:#00ff6d;}.cls-8{mask:url(#mask-3);}.cls-9{fill:#f766ff;}</style><linearGradient id="linear-gradient" x1="-2308.88" y1="1010.96" x2="-7078.89" y2="394.79" gradientTransform="translate(7342.34)" gradientUnits="userSpaceOnUse"><stop offset="0" stop-color="#fff"/><stop offset="1"/></linearGradient><linearGradient id="linear-gradient-2" x1="-7563.84" y1="2184.02" x2="-2243.85" y2="-560.96" xlink:href="#linear-gradient"/><linearGradient id="linear-gradient-3" x1="-8938.09" y1="2086.46" x2="-2603.1" y2="-158.55" xlink:href="#linear-gradient"/><mask id="mask" x="0" y="97.39" width="5000" height="1172.61" maskUnits="userSpaceOnUse"><rect class="cls-1" y="97.39" width="5000" height="1172.61"/></mask><mask id="mask-2" x="0" y="289.59" width="5000" height="980.42" maskUnits="userSpaceOnUse"><rect class="cls-2" y="289.59" width="5000" height="980.42"/></mask><mask id="mask-3" x="0" y="0" width="5000" height="1270" maskUnits="userSpaceOnUse"><rect class="cls-3" width="5000" height="1270"/></mask></defs><title>Asset 1lucidvibesbg</title><g id="Layer_2" data-name="Layer 2"><g id="Layer_1-2" data-name="Layer 1"><g class="cls-4"><path class="cls-5" d="M5000,1004.05C3014.77,1799.79,2633-994.33,0,595.86V1270H5000Z"/></g><g class="cls-6"><path class="cls-7" d="M5000,1004.05V433.23C4230.14,266.76,3601.35,608.06,3031.46,679.1c-264.12,32.92-515.6,7.79-762.6-152.85-626-407.13-1332.37-191.7-2026.92-67.7C161.09,473,80.39,486.19,0,497v773H5000Z"/></g><g class="cls-8"><path class="cls-9" d="M2127.29,445.15C1495.94,828.8,922.55,1271.37,0,930.71V1270H5000V536.76q-122.55-76.22-238.81-140.16C3662.84-208.29,2971.43-22.66,2372.52,303c-83.25,45.26-164.71,93.23-245.23,142.16"/></g></g></g></svg>