<svg xmlns="http://www.w3.org/2000/svg" viewBox="0 0 227.82 138.06"><defs><style>.cls-1{fill:#22c55e;}</style></defs><title>Asset 27ball</title><g id="Layer_2" data-name="Layer 2"><g id="Layer_1-2" data-name="Layer 1"><path class="cls-1" d="M0,115.37c3-5.73,7-11,8.21-17.56.93-5-.3-9.72-1.33-14.49C5.47,76.73,4,70.15,2.52,63.59A37.17,37.17,0,0,1,4.44,40.1c3.78-9,8.51-17.26,15.79-23.91C28.19,8.91,37.8,5.89,48.36,5c13.5-1.2,26.77.39,40.06,2.45,5,.79,10.13,1.61,15.17-.16a19.12,19.12,0,0,0,4.77-2.36C118.48-2.19,128.75-.89,139,4.42c4.94,2.56,9.72,5.41,15.37,6.15,8.77,1.15,17.59,1.23,26.41,1.51a2.41,2.41,0,0,0,2-1.13,22.77,22.77,0,0,1,4.65-4.44c2-1.29,2.91-1,4,1.07a49.67,49.67,0,0,1,3.47,8.64,3.42,3.42,0,0,0,2.43,2.55c1.63.5,3.18,1.23,4.78,1.81,4.64,1.67,8.53,4.1,9.8,9.32a2.44,2.44,0,0,0,2,1.79,60.08,60.08,0,0,1,10.39,3.87c3.86,1.86,4.36,3.48,2.23,7.19a46,46,0,0,1-7.21,9c-1.42,1.47-3.53,1.47-5.41,1.74-6.75,1-13.51,1.78-20.27,2.7a28.51,28.51,0,0,0-11.11,3.49A38.68,38.68,0,0,1,164.16,65c-6.85.24-11.2,3.49-14.21,9.29-3.93,7.59-5.79,15.81-7.47,24.09-1.48,7.34-2.45,14.76-3.39,22.19a2.06,2.06,0,0,0,1,2.18,37.93,37.93,0,0,1,6.6,5.6,14.15,14.15,0,0,1,3.2,7.21c.15,1,.1,1.64-1.26,1.64q-17.79-.08-35.59,0c-1.46,0-1.5-.79-1.6-1.78-.52-4.71-.43-9.52-1.59-14.13A80.68,80.68,0,0,0,98.16,94.61a5.56,5.56,0,0,0-4.68-2.43,240.82,240.82,0,0,0-25.34-.76,71.17,71.17,0,0,0-16.49,2.16,34.06,34.06,0,0,0-4.37,1.59A6.42,6.42,0,0,0,43,101.43c-.36,7.57-2.39,14.64-8.5,19.83-3.35,2.84-6.48,4-13.41,4.92,2.32,2.2,4.14,4.54,4.8,7.61.79,3.64.48,4.17-3.19,4.25-5.72.13-11.41-.39-17.1-.8-1.19-.08-1.43-.73-1.7-1.63-1.17-3.9-2.37-7.79-3.16-11.8-.14-.74.06-1.66-.74-2.21Z"/></g></g></svg>