<svg xmlns="http://www.w3.org/2000/svg" viewBox="0 0 485.89 392.3"><defs><style>.cls-1{fill:#22c55e;}.cls-2{fill:#fefefe;}.cls-3{fill:#eab308;}</style></defs><title>Asset 28bearcap</title><g id="Layer_2" data-name="Layer 2"><g id="Layer_1-2" data-name="Layer 1"><path class="cls-1" d="M409.45,151.4v16.76c-.8,1.18-.57,2.6-.64,3.85-.85,15.47-9.53,26.54-20.3,36.47A62.53,62.53,0,0,1,369,220.66c-2.88,1.15-4,3.26-3.93,6.25.06,3.72.89,7.37.83,11.12-.42,28.88-8.11,55.61-23.7,80-20.82,32.55-50,54.42-86.6,66.34A162.81,162.81,0,0,1,177.83,390c-32-5.23-60.11-18.54-84.05-40.45C67.64,325.63,51.49,296.17,45.6,261.3c-1.79-10.57-2.91-21.31-1.34-32.13.85-5.91,0-6.77-5.65-9.29-16.77-7.53-28.88-19.68-36-36.67-2-4.79-1.35-10.1-2.63-15.05V150.6c.83-9.26,2.87-18.08,8.33-25.91C21.84,105.35,40.08,94.56,63.9,93.56c17.33-.73,32.87,4.09,46.5,14.82,2.77,2.17,5.27,1.77,8.08.14a173.57,173.57,0,0,1,34.76-16,170.25,170.25,0,0,1,81.66-5.29,155.75,155.75,0,0,1,54.29,20.31c4.38,2.63,7.52,2.63,11.78-.6,25.12-19,63-18.16,87.25,3.1A78.88,78.88,0,0,1,403,127.75c4.18,6.67,5.7,14.06,6.08,21.77C409.08,150.17,408.94,150.85,409.45,151.4Z"/><path class="cls-2" d="M204.71,250.43c10.13,0,20.25,0,30.38,0,7.44,0,12.6,3,14.78,8.74,2.43,6.38.35,11.64-4.29,16.24-8.23,8.15-16.36,16.4-24.62,24.5a7.23,7.23,0,0,0-2.52,5.91c.19,5.17.16,10.37,0,15.55-.25,7.95-6.06,13.64-13.71,13.65S191.26,329.34,191,321.4c-.16-5.32-.15-10.64,0-15.95a6.55,6.55,0,0,0-2.21-5.23c-8.54-8.39-17.07-16.81-25.43-25.38-7.7-7.9-5.67-19.47,3.93-23.27a19.78,19.78,0,0,1,7.45-1.15C184.73,250.45,194.72,250.43,204.71,250.43Z"/><path class="cls-3" d="M318.41,143.53a30.44,30.44,0,0,1-11.69-6.23Q253.4,93.91,200.1,50.48c-6.37-5.19-9-13.16-6.61-20.56C196.07,22,201.67,17.35,210,16.36Q278.38,8.24,346.81.25a32.25,32.25,0,0,1,25,7.34Q425,50.9,478.19,94.25c6.68,5.44,9.23,12.47,6.79,20.72s-8.29,12.63-16.71,13.63Q400,136.67,331.72,144.69A30.69,30.69,0,0,1,318.41,143.53Z"/><path class="cls-3" d="M416.69,148l-.72,2.48c-4,13.84-8,27.7-12.09,41.52-3.64,12.3-11.73,20-24.24,23a157,157,0,0,1-90.9-5.14,154.55,154.55,0,0,1-60.8-39.68c-8.16-8.6-10.73-18.92-7.59-30.34,4-14.38,8.34-28.63,12.38-43,.77-2.73,1.57-2.17,3.21-.82,20.68,16.89,41.42,33.69,62.06,50.62,10.48,8.58,22.3,12.21,35.76,10.62q39.92-4.71,79.83-9.35C414.54,147.77,415.52,147.33,416.69,148Z"/><path class="cls-3" d="M421.48,222.34c-2.77-.8-5.55-1.55-8.3-2.43-4.49-1.43-6.12-4.45-4.85-9,1.34-4.78,2.75-9.54,4.16-14.31a15.11,15.11,0,0,1,7.61-9.48c1.52-.8,1.95-1.26,1-3-5-9.45-.49-20,9.78-22.92a3.25,3.25,0,0,0,2.65-2.68c1-3.74,2.21-7.43,3.19-11.17.43-1.64,1.09-2.52,2.94-2.64,3.16-.2,6.31-.64,9.45-1.09,1.57-.22,1.9.21,1.45,1.72-1.66,5.51-3.19,11.07-4.88,16.58a3.55,3.55,0,0,0,.92,3.94,15.6,15.6,0,0,1-4.06,24.43c-1.53.87-2,1.33-.95,3a14.38,14.38,0,0,1,1.47,11.77c-1.44,5.07-2.86,10.14-4.41,15.17-1.24,4-4.19,5.66-8.31,4.64C427.37,224.15,424.44,223.19,421.48,222.34Z"/></g></g></svg>