<svg width="146" height="118" viewBox="0 0 146 118" fill="none" xmlns="http://www.w3.org/2000/svg">
<path d="M122.702 44.8583C122.588 42.5455 122.132 40.3288 120.878 38.328C119.671 36.3543 118.18 34.5685 116.454 33.0275C109.189 26.6502 97.8168 26.4042 90.2906 32.1036C89.0128 33.0725 88.0709 33.0725 86.757 32.2836C81.7553 29.2485 76.228 27.1799 70.4627 26.1852C62.29 24.7148 53.8819 25.2595 45.9672 27.7721C42.3253 28.9827 38.8284 30.5923 35.5403 32.5716C34.6974 33.0605 33.9475 33.1715 33.1166 32.5296C29.028 29.2989 24.3665 27.8531 19.168 28.072C12.0228 28.372 6.55132 31.6087 2.49874 37.4101C0.860911 39.7588 0.248974 42.4046 0 45.1823V50.4497C0.38396 51.9496 0.18898 53.5274 0.788918 54.9643C2.9187 60.0637 6.55132 63.7054 11.5878 65.9641C13.2676 66.72 13.5376 66.978 13.2826 68.7508C12.8117 71.9965 13.1476 75.2182 13.6846 78.3888C15.4514 88.8487 20.2839 97.6858 28.1371 104.864C35.3183 111.436 43.7535 115.429 53.3495 116.998C61.1445 118.328 69.1459 117.745 76.666 115.3C87.6449 111.724 96.398 105.164 102.643 95.4001C107.32 88.0898 109.627 80.0716 109.753 71.4025C109.771 70.2777 109.522 69.1828 109.504 68.0669C109.504 67.167 109.819 66.5371 110.683 66.1921C112.847 65.3479 114.835 64.109 116.547 62.5385C119.778 59.5598 122.381 56.2391 122.636 51.5986C122.657 51.2236 122.588 50.7977 122.828 50.4437V45.4222C122.669 45.2573 122.711 45.0533 122.702 44.8583ZM73.6664 82.6244C71.1976 85.0691 68.7589 87.5439 66.2811 89.9736C66.027 90.1909 65.8266 90.4639 65.6954 90.7715C65.5643 91.079 65.506 91.4127 65.5252 91.7464C65.5822 93.2973 65.5732 94.8571 65.5252 96.411C65.4502 98.7957 63.7074 100.503 61.4126 100.506C59.1179 100.509 57.372 98.7987 57.2941 96.417C57.2461 94.8211 57.2491 93.2253 57.2941 91.6325C57.3083 91.338 57.2562 91.044 57.1414 90.7725C57.0267 90.5009 56.8522 90.2586 56.6311 90.0636C54.0694 87.5469 51.5107 85.0211 49.0029 82.4504C46.6932 80.0806 47.3021 76.61 50.1818 75.4701C50.8977 75.2129 51.6564 75.0958 52.4166 75.1252C55.4163 75.1252 58.4159 75.1252 61.4156 75.1252C64.4153 75.1252 67.49 75.1252 70.5287 75.1252C72.7604 75.1252 74.3083 76.0251 74.9622 77.7469C75.6821 79.6667 75.0582 81.2445 73.6664 82.6244Z" fill="#278A2A"/>
<path d="M95.5131 43.0615C94.2212 42.7035 93.024 42.0655 92.0064 41.1927C81.3435 32.5156 70.6826 23.8345 60.0238 15.1494C58.113 13.5926 57.324 11.2018 58.041 8.98204C58.8149 6.60628 60.4947 5.21143 62.9934 4.91446C76.668 3.29063 90.3476 1.6798 104.032 0.0819618C105.367 -0.0928506 106.723 0.012677 108.014 0.391799C109.305 0.770921 110.503 1.4153 111.531 2.28373C122.168 10.9448 132.805 19.6099 143.442 28.279C145.446 29.9109 146.211 32.0196 145.479 34.4944C144.747 36.9691 142.992 38.283 140.466 38.583C126.814 40.1968 113.16 41.8056 99.5056 43.4095C98.1654 43.5881 96.8022 43.4693 95.5131 43.0615Z" fill="#EAB308"/>
<path d="M124.994 44.4024L124.778 45.1463C123.578 49.2979 122.378 53.4554 121.151 57.601C120.06 61.2906 117.633 63.6004 113.88 64.5003C104.838 66.6909 95.3502 66.1544 86.613 62.9584C79.6747 60.4953 73.4229 56.4152 68.3749 51.0557C65.9271 48.4759 65.1562 45.3803 66.0981 41.9546C67.298 37.6411 68.5999 33.3665 69.8117 29.056C70.0427 28.237 70.2827 28.405 70.7746 28.81C76.978 33.8765 83.1993 38.9159 89.3907 43.9944C92.5344 46.5681 96.08 47.657 100.118 47.1801C108.101 46.2382 116.083 45.3033 124.064 44.3754C124.349 44.3334 124.643 44.2014 124.994 44.4024Z" fill="#EAB308"/>
<path d="M126.431 66.702C125.6 66.4621 124.766 66.2371 123.941 65.9731C122.594 65.5442 122.105 64.6383 122.486 63.2734C122.888 61.8395 123.311 60.4117 123.734 58.9808C123.897 58.3746 124.184 57.8088 124.577 57.3193C124.97 56.8298 125.46 56.4272 126.017 56.1371C126.473 55.8972 126.602 55.7592 126.317 55.2372C124.817 52.4025 126.17 49.2379 129.251 48.3619C129.45 48.3272 129.634 48.2311 129.776 48.087C129.919 47.9429 130.013 47.758 130.046 47.558C130.345 46.4361 130.708 45.3293 131.002 44.2074C131.131 43.7154 131.329 43.4515 131.884 43.4155C132.832 43.3555 133.777 43.2235 134.719 43.0885C135.19 43.0225 135.289 43.1515 135.154 43.6044C134.656 45.2573 134.197 46.9251 133.69 48.5779C133.61 48.7796 133.594 49.0008 133.643 49.212C133.693 49.4232 133.805 49.6143 133.966 49.7598C134.457 50.2843 134.82 50.9147 135.028 51.6022C135.236 52.2897 135.283 53.0159 135.166 53.7245C135.048 54.433 134.769 55.105 134.349 55.6883C133.93 56.2716 133.382 56.7505 132.748 57.088C132.289 57.349 132.148 57.487 132.463 57.9879C132.784 58.5112 132.989 59.0968 133.065 59.7057C133.141 60.3145 133.086 60.9326 132.904 61.5186C132.472 63.0394 132.046 64.5603 131.581 66.0691C131.209 67.269 130.324 67.7669 129.092 67.461C128.198 67.245 127.319 66.957 126.431 66.702Z" fill="#EAB308"/>
</svg>
