<svg xmlns="http://www.w3.org/2000/svg" viewBox="0 0 38.99 40.39"><defs><style>.cls-1{fill:#22c55e;}.cls-2{fill:#eab308;}</style></defs><title>Asset 26ball</title><g id="Layer_2" data-name="Layer 2"><g id="Layer_1-2" data-name="Layer 1"><path class="cls-1" d="M39,5.81a6.34,6.34,0,0,1-1.45,4,12.4,12.4,0,0,1-2.07,2.09.52.52,0,0,0-.2.67,43.15,43.15,0,0,1,2.19,11.53,11,11,0,0,1-3.37,8.51,26.18,26.18,0,0,1-8.21,5.55,39.16,39.16,0,0,1-5.74,2.13,2,2,0,0,1-1.15,0A35.9,35.9,0,0,1,7.1,34.58a17.5,17.5,0,0,1-3.34-3.32,11.58,11.58,0,0,1-2.15-8.7A47.39,47.39,0,0,1,3.74,12.49a.45.45,0,0,0-.18-.56A13.69,13.69,0,0,1,1.2,9.48,6.46,6.46,0,0,1,2.25.89a3.57,3.57,0,0,1,2-.87A1.59,1.59,0,0,1,5.6.47,20.35,20.35,0,0,0,9.48,3.31c.16.09.3.21.52.11a6.7,6.7,0,0,1,4-.28,33.75,33.75,0,0,0,5.85.61,36.51,36.51,0,0,0,5.11-.59A6.81,6.81,0,0,1,29,3.43c.2.09.33,0,.48-.11A18.16,18.16,0,0,0,33.23.6,1.94,1.94,0,0,1,35.29.12,3.65,3.65,0,0,1,36.86,1,7,7,0,0,1,39,5.81Z"/><path class="cls-2" d="M19.5,16.46a19.13,19.13,0,0,1,3.78.26c2.77.54,3.94,2,3.68,4.8a13.25,13.25,0,0,1-3.58,8,6.72,6.72,0,0,1-1.29,1.08,4.46,4.46,0,0,1-5.26-.05,8.88,8.88,0,0,1-2.56-2.69A13.07,13.07,0,0,1,12,21c-.05-2.46,1.11-3.83,3.54-4.29A21.05,21.05,0,0,1,19.5,16.46Z"/><path class="cls-2" d="M36.57,5.94a4.68,4.68,0,0,1-1.39,2.89c-.91,1-.92,1-1.49-.17-.23-.47-.72-.92-.67-1.4s.5-.88.77-1.31.58-1,.91-1.41.72-.51,1.2-.12A1.81,1.81,0,0,1,36.57,5.94Z"/><path class="cls-2" d="M2.41,5.91a1.8,1.8,0,0,1,.64-1.46c.5-.43.88-.41,1.26.12s.63,1.13,1,1.6a1.58,1.58,0,0,1,.07,2.29,5.35,5.35,0,0,0-.53,1c-.06.14-.12.22-.27.1A5.38,5.38,0,0,1,2.41,5.91Z"/><path d="M24,20.15A6.68,6.68,0,0,1,21,25a2.89,2.89,0,0,1-3.73-.49A7,7,0,0,1,15,20.26a1.7,1.7,0,0,1,1.67-2.2,29.1,29.1,0,0,1,5.6,0C23.47,18.17,24,18.79,24,20.15Z"/></g></g></svg>