<svg xmlns="http://www.w3.org/2000/svg" viewBox="0 0 100.94 54"><defs><style>.cls-1{fill:#16c44a;}.cls-2{fill:#fff;}</style></defs><title>Asset 25luciddocs</title><g id="Layer_2" data-name="Layer 2"><g id="Layer_1-2" data-name="Layer 1"><path class="cls-1" d="M92.09,22.45q3.34,9.4-1.23,17.43T75.68,51.67q-10.44,3.7-19.1.41t-12-12.73l-6.7-18.87L85.37,3.62l6.7,18.87ZM52.89,36.12a11.53,11.53,0,0,0,7.5,7.47q5.53,1.88,12.45-.56t9.83-7.31a11.65,11.65,0,0,0,1-10.49L80.05,15,49.3,25.9l3.64,10.24Z"/><path class="cls-2" d="M73.94,54H27A27,27,0,0,1,27,0H73.94a27,27,0,1,1,0,54ZM27,9a18,18,0,0,0,0,36H73.94a18,18,0,0,0,0-36Z"/></g></g></svg>