<svg width="90" height="89" viewBox="0 0 90 89" fill="none" xmlns="http://www.w3.org/2000/svg">
<path d="M41.3033 20.6305C41.3033 26.1905 41.3033 31.7605 41.3033 37.3205C41.3033 40.4305 40.4833 41.2605 37.3633 41.3205H3.79335C0.693349 41.3205 -0.206651 40.4005 0.0833491 37.2705C0.872574 27.9068 4.93329 19.1197 11.5533 12.4505C18.2315 5.40581 27.2312 1.01254 36.8933 0.0805374C40.5033 -0.289463 41.2933 0.540537 41.3033 4.14054C41.3133 9.64054 41.3033 15.1305 41.3033 20.6305Z" fill="white"/>
<path d="M41.3033 68.1605C41.3033 73.6605 41.3033 79.1605 41.3033 84.6605C41.3033 88.3805 40.5233 89.2105 36.7933 88.8005C26.1551 87.7414 16.3687 82.5139 9.57332 74.2605C3.98303 67.8031 0.632763 59.7098 0.0233227 51.1905C-0.166677 48.7105 0.793323 47.6505 3.30332 47.6405C14.8033 47.6005 26.3067 47.6005 37.8133 47.6405C40.4133 47.6405 41.2533 48.5805 41.2733 51.2905C41.3233 56.9205 41.3033 62.5405 41.3033 68.1605Z" fill="white"/>
<path d="M88.2133 67.5905C88.2133 73.1605 88.2133 78.7205 88.2133 84.2805C88.2133 87.4705 87.3433 88.2805 84.1233 88.2805C73.0633 88.2805 61.9966 88.2805 50.9233 88.2805C47.5233 88.2805 46.6233 87.1405 47.0433 83.6905C48.8733 68.8005 56.6633 58.0405 69.7933 51.0805C74.4166 48.7122 79.4788 47.3232 84.6633 47.0005C86.9533 46.8205 88.1833 48.0005 88.2033 50.3505C88.2333 56.0905 88.2133 61.8405 88.2133 67.5905Z" fill="white"/>
<path d="M68.4134 41.4905C62.7934 41.4905 57.1634 41.4905 51.5434 41.4905C48.6134 41.4905 47.8134 40.6905 47.8134 37.7805C47.8134 26.4139 47.8134 15.0405 47.8134 3.66054C47.8134 0.870539 49.0834 -0.0794614 51.9134 0.250539C62.2855 1.25518 71.8859 6.17161 78.7634 14.0005C84.7945 20.7411 88.448 29.274 89.1634 38.2905C89.3634 40.2905 88.0434 41.5105 85.6634 41.5205C79.9134 41.5105 74.1634 41.4905 68.4134 41.4905Z" fill="white"/>
</svg>
