<svg xmlns="http://www.w3.org/2000/svg" viewBox="0 0 89.16 88.89"><defs><style>.cls-1{fill:#278a2a;}.cls-2{fill:#eab308;}</style></defs><title>Asset 2luciddocs</title><g id="Layer_2" data-name="Layer 2"><g id="Layer_1-2" data-name="Layer 1"><path class="cls-1" d="M41.28,20.63c0,5.56,0,11.13,0,16.69,0,3.11-.82,3.94-3.94,4H3.77c-3.1,0-4-.92-3.71-4.05A40,40,0,0,1,11.53,12.45,40.24,40.24,0,0,1,36.87.08c3.61-.37,4.4.46,4.41,4.06C41.29,9.64,41.28,15.13,41.28,20.63Z"/><path class="cls-1" d="M41.28,68.16c0,5.5,0,11,0,16.5,0,3.72-.78,4.55-4.51,4.14A40.45,40.45,0,0,1,9.55,74.26,39.56,39.56,0,0,1,0,51.19c-.19-2.48.77-3.54,3.28-3.55q17.25-.06,34.51,0c2.6,0,3.44.94,3.46,3.65C41.3,56.92,41.28,62.54,41.28,68.16Z"/><path class="cls-2" d="M88.19,67.59c0,5.57,0,11.13,0,16.69,0,3.19-.87,4-4.09,4q-16.59,0-33.2,0c-3.4,0-4.3-1.14-3.88-4.59,1.83-14.89,9.62-25.65,22.75-32.61A37.76,37.76,0,0,1,84.64,47c2.29-.18,3.52,1,3.54,3.35C88.21,56.09,88.19,61.84,88.19,67.59Z"/><path class="cls-1" d="M68.39,41.49c-5.62,0-11.25,0-16.87,0-2.93,0-3.73-.8-3.73-3.71q0-17.05,0-34.12c0-2.79,1.27-3.74,4.1-3.41A41,41,0,0,1,78.74,14a41.33,41.33,0,0,1,10.4,24.29c.2,2-1.12,3.22-3.5,3.23C79.89,41.51,74.14,41.49,68.39,41.49Z"/></g></g></svg>