<svg width="952" height="269" viewBox="0 0 952 269" fill="none" xmlns="http://www.w3.org/2000/svg">
<path d="M20 0.5H951.5V268.5H20C9.23046 268.5 0.5 259.77 0.5 249V20C0.500003 9.23045 9.23045 0.5 20 0.5Z" fill="#161719" stroke="#242424"/>
<path d="M113.872 46.272L109.024 63H106.576L102.688 49.536L98.656 63L96.232 63.024L91.552 46.272H93.88L97.528 60.456L101.56 46.272H104.008L107.848 60.408L111.52 46.272H113.872ZM122.79 49.608C123.782 49.608 124.678 49.824 125.478 50.256C126.278 50.672 126.902 51.304 127.35 52.152C127.814 53 128.046 54.032 128.046 55.248V63H125.886V55.56C125.886 54.248 125.558 53.248 124.902 52.56C124.246 51.856 123.35 51.504 122.214 51.504C121.062 51.504 120.142 51.864 119.454 52.584C118.782 53.304 118.446 54.352 118.446 55.728V63H116.262V45.24H118.446V51.72C118.878 51.048 119.47 50.528 120.222 50.16C120.99 49.792 121.846 49.608 122.79 49.608ZM130.798 56.376C130.798 55.032 131.07 53.856 131.614 52.848C132.158 51.824 132.902 51.032 133.846 50.472C134.806 49.912 135.87 49.632 137.038 49.632C138.19 49.632 139.19 49.88 140.038 50.376C140.886 50.872 141.518 51.496 141.934 52.248V49.848H144.142V63H141.934V60.552C141.502 61.32 140.854 61.96 139.99 62.472C139.142 62.968 138.15 63.216 137.014 63.216C135.846 63.216 134.79 62.928 133.846 62.352C132.902 61.776 132.158 60.968 131.614 59.928C131.07 58.888 130.798 57.704 130.798 56.376ZM141.934 56.4C141.934 55.408 141.734 54.544 141.334 53.808C140.934 53.072 140.39 52.512 139.702 52.128C139.03 51.728 138.286 51.528 137.47 51.528C136.654 51.528 135.91 51.72 135.238 52.104C134.566 52.488 134.03 53.048 133.63 53.784C133.23 54.52 133.03 55.384 133.03 56.376C133.03 57.384 133.23 58.264 133.63 59.016C134.03 59.752 134.566 60.32 135.238 60.72C135.91 61.104 136.654 61.296 137.47 61.296C138.286 61.296 139.03 61.104 139.702 60.72C140.39 60.32 140.934 59.752 141.334 59.016C141.734 58.264 141.934 57.392 141.934 56.4ZM150.496 51.648V59.4C150.496 60.04 150.632 60.496 150.904 60.768C151.176 61.024 151.648 61.152 152.32 61.152H153.928V63H151.96C150.744 63 149.832 62.72 149.224 62.16C148.616 61.6 148.312 60.68 148.312 59.4V51.648H146.608V49.848H148.312V46.536H150.496V49.848H153.928V51.648H150.496ZM162.157 56.376C162.157 55.032 162.429 53.856 162.973 52.848C163.517 51.824 164.261 51.032 165.205 50.472C166.165 49.912 167.229 49.632 168.397 49.632C169.549 49.632 170.549 49.88 171.397 50.376C172.245 50.872 172.877 51.496 173.293 52.248V49.848H175.501V63H173.293V60.552C172.861 61.32 172.213 61.96 171.349 62.472C170.501 62.968 169.509 63.216 168.373 63.216C167.205 63.216 166.149 62.928 165.205 62.352C164.261 61.776 163.517 60.968 162.973 59.928C162.429 58.888 162.157 57.704 162.157 56.376ZM173.293 56.4C173.293 55.408 173.093 54.544 172.693 53.808C172.293 53.072 171.749 52.512 171.061 52.128C170.389 51.728 169.645 51.528 168.829 51.528C168.013 51.528 167.269 51.72 166.597 52.104C165.925 52.488 165.389 53.048 164.989 53.784C164.589 54.52 164.389 55.384 164.389 56.376C164.389 57.384 164.589 58.264 164.989 59.016C165.389 59.752 165.925 60.32 166.597 60.72C167.269 61.104 168.013 61.296 168.829 61.296C169.645 61.296 170.389 61.104 171.061 60.72C171.749 60.32 172.293 59.752 172.693 59.016C173.093 58.264 173.293 57.392 173.293 56.4ZM181.376 51.984C181.76 51.232 182.304 50.648 183.008 50.232C183.728 49.816 184.6 49.608 185.624 49.608V51.864H185.048C182.6 51.864 181.376 53.192 181.376 55.848V63H179.192V49.848H181.376V51.984ZM200.145 55.92C200.145 56.336 200.121 56.776 200.073 57.24H189.561C189.641 58.536 190.081 59.552 190.881 60.288C191.697 61.008 192.681 61.368 193.833 61.368C194.777 61.368 195.561 61.152 196.185 60.72C196.825 60.272 197.273 59.68 197.529 58.944H199.881C199.529 60.208 198.825 61.24 197.769 62.04C196.713 62.824 195.401 63.216 193.833 63.216C192.585 63.216 191.465 62.936 190.473 62.376C189.497 61.816 188.729 61.024 188.169 60C187.609 58.96 187.329 57.76 187.329 56.4C187.329 55.04 187.601 53.848 188.145 52.824C188.689 51.8 189.449 51.016 190.425 50.472C191.417 49.912 192.553 49.632 193.833 49.632C195.081 49.632 196.185 49.904 197.145 50.448C198.105 50.992 198.841 51.744 199.353 52.704C199.881 53.648 200.145 54.72 200.145 55.92ZM197.889 55.464C197.889 54.632 197.705 53.92 197.337 53.328C196.969 52.72 196.465 52.264 195.825 51.96C195.201 51.64 194.505 51.48 193.737 51.48C192.633 51.48 191.689 51.832 190.905 52.536C190.137 53.24 189.697 54.216 189.585 55.464H197.889ZM221.426 55.92C221.426 56.336 221.402 56.776 221.354 57.24H210.842C210.922 58.536 211.362 59.552 212.162 60.288C212.978 61.008 213.962 61.368 215.114 61.368C216.058 61.368 216.842 61.152 217.466 60.72C218.106 60.272 218.554 59.68 218.81 58.944H221.162C220.81 60.208 220.106 61.24 219.05 62.04C217.994 62.824 216.682 63.216 215.114 63.216C213.866 63.216 212.746 62.936 211.754 62.376C210.778 61.816 210.01 61.024 209.45 60C208.89 58.96 208.61 57.76 208.61 56.4C208.61 55.04 208.882 53.848 209.426 52.824C209.97 51.8 210.73 51.016 211.706 50.472C212.698 49.912 213.834 49.632 215.114 49.632C216.362 49.632 217.466 49.904 218.426 50.448C219.386 50.992 220.122 51.744 220.634 52.704C221.162 53.648 221.426 54.72 221.426 55.92ZM219.17 55.464C219.17 54.632 218.986 53.92 218.618 53.328C218.25 52.72 217.746 52.264 217.106 51.96C216.482 51.64 215.786 51.48 215.018 51.48C213.914 51.48 212.97 51.832 212.186 52.536C211.418 53.24 210.978 54.216 210.866 55.464H219.17ZM230.717 49.608C232.317 49.608 233.613 50.096 234.605 51.072C235.597 52.032 236.093 53.424 236.093 55.248V63H233.933V55.56C233.933 54.248 233.605 53.248 232.949 52.56C232.293 51.856 231.397 51.504 230.261 51.504C229.109 51.504 228.189 51.864 227.501 52.584C226.829 53.304 226.493 54.352 226.493 55.728V63H224.309V49.848H226.493V51.72C226.925 51.048 227.509 50.528 228.245 50.16C228.997 49.792 229.821 49.608 230.717 49.608ZM241.293 61.2H247.749V63H238.797V61.2L245.181 51.624H238.845V49.848H247.701V51.624L241.293 61.2ZM261.91 49.848L253.99 69.192H251.734L254.326 62.856L249.022 49.848H251.446L255.574 60.504L259.654 49.848H261.91ZM279.922 49.608C280.946 49.608 281.858 49.824 282.658 50.256C283.458 50.672 284.09 51.304 284.554 52.152C285.018 53 285.25 54.032 285.25 55.248V63H283.09V55.56C283.09 54.248 282.762 53.248 282.106 52.56C281.466 51.856 280.594 51.504 279.49 51.504C278.354 51.504 277.45 51.872 276.778 52.608C276.106 53.328 275.77 54.376 275.77 55.752V63H273.61V55.56C273.61 54.248 273.282 53.248 272.626 52.56C271.986 51.856 271.114 51.504 270.01 51.504C268.874 51.504 267.97 51.872 267.298 52.608C266.626 53.328 266.29 54.376 266.29 55.752V63H264.106V49.848H266.29V51.744C266.722 51.056 267.298 50.528 268.018 50.16C268.754 49.792 269.562 49.608 270.442 49.608C271.546 49.608 272.522 49.856 273.37 50.352C274.218 50.848 274.85 51.576 275.266 52.536C275.634 51.608 276.242 50.888 277.09 50.376C277.938 49.864 278.882 49.608 279.922 49.608ZM300.832 55.92C300.832 56.336 300.808 56.776 300.76 57.24H290.248C290.328 58.536 290.768 59.552 291.568 60.288C292.384 61.008 293.368 61.368 294.52 61.368C295.464 61.368 296.248 61.152 296.872 60.72C297.512 60.272 297.96 59.68 298.216 58.944H300.568C300.216 60.208 299.512 61.24 298.456 62.04C297.4 62.824 296.088 63.216 294.52 63.216C293.272 63.216 292.152 62.936 291.16 62.376C290.184 61.816 289.416 61.024 288.856 60C288.296 58.96 288.016 57.76 288.016 56.4C288.016 55.04 288.288 53.848 288.832 52.824C289.376 51.8 290.136 51.016 291.112 50.472C292.104 49.912 293.24 49.632 294.52 49.632C295.768 49.632 296.872 49.904 297.832 50.448C298.792 50.992 299.528 51.744 300.04 52.704C300.568 53.648 300.832 54.72 300.832 55.92ZM298.576 55.464C298.576 54.632 298.392 53.92 298.024 53.328C297.656 52.72 297.152 52.264 296.512 51.96C295.888 51.64 295.192 51.48 294.424 51.48C293.32 51.48 292.376 51.832 291.592 52.536C290.824 53.24 290.384 54.216 290.272 55.464H298.576ZM308.371 63.216C307.363 63.216 306.459 63.048 305.659 62.712C304.859 62.36 304.227 61.88 303.763 61.272C303.299 60.648 303.043 59.936 302.995 59.136H305.251C305.315 59.792 305.619 60.328 306.163 60.744C306.723 61.16 307.451 61.368 308.347 61.368C309.179 61.368 309.835 61.184 310.315 60.816C310.795 60.448 311.035 59.984 311.035 59.424C311.035 58.848 310.779 58.424 310.267 58.152C309.755 57.864 308.963 57.584 307.891 57.312C306.915 57.056 306.115 56.8 305.491 56.544C304.883 56.272 304.355 55.88 303.907 55.368C303.475 54.84 303.259 54.152 303.259 53.304C303.259 52.632 303.459 52.016 303.859 51.456C304.259 50.896 304.827 50.456 305.563 50.136C306.299 49.8 307.139 49.632 308.083 49.632C309.539 49.632 310.715 50 311.611 50.736C312.507 51.472 312.987 52.48 313.051 53.76H310.867C310.819 53.072 310.539 52.52 310.027 52.104C309.531 51.688 308.859 51.48 308.011 51.48C307.227 51.48 306.603 51.648 306.139 51.984C305.675 52.32 305.443 52.76 305.443 53.304C305.443 53.736 305.579 54.096 305.851 54.384C306.139 54.656 306.491 54.88 306.907 55.056C307.339 55.216 307.931 55.4 308.683 55.608C309.627 55.864 310.395 56.12 310.987 56.376C311.579 56.616 312.083 56.984 312.499 57.48C312.931 57.976 313.155 58.624 313.171 59.424C313.171 60.144 312.971 60.792 312.571 61.368C312.171 61.944 311.603 62.4 310.867 62.736C310.147 63.056 309.315 63.216 308.371 63.216Z" fill="#8C8F94"/>
<path d="M58.228 52C58.777 50.835 60.258 50 62 50C64.21 50 66 51.343 66 53C66 54.4 64.722 55.575 62.994 55.907C62.452 56.011 62 56.447 62 57M62 60H62.01M71 55C71 56.1819 70.7672 57.3522 70.3149 58.4442C69.8626 59.5361 69.1997 60.5282 68.364 61.364C67.5282 62.1997 66.5361 62.8626 65.4442 63.3149C64.3522 63.7672 63.1819 64 62 64C60.8181 64 59.6478 63.7672 58.5558 63.3149C57.4639 62.8626 56.4718 62.1997 55.636 61.364C54.8003 60.5282 54.1374 59.5361 53.6851 58.4442C53.2328 57.3522 53 56.1819 53 55C53 52.6131 53.9482 50.3239 55.636 48.636C57.3239 46.9482 59.6131 46 62 46C64.3869 46 66.6761 46.9482 68.364 48.636C70.0518 50.3239 71 52.6131 71 55Z" stroke="#8C8F94" stroke-width="2" stroke-linecap="round" stroke-linejoin="round"/>
<path d="M243.816 155.392V172H241.632V159.616L236.112 172H234.576L229.032 159.592V172H226.848V155.392H229.2L235.344 169.12L241.488 155.392H243.816ZM253.256 172.216C252.024 172.216 250.904 171.936 249.896 171.376C248.904 170.816 248.12 170.024 247.544 169C246.984 167.96 246.704 166.76 246.704 165.4C246.704 164.056 246.992 162.872 247.568 161.848C248.16 160.808 248.96 160.016 249.968 159.472C250.976 158.912 252.104 158.632 253.352 158.632C254.6 158.632 255.728 158.912 256.736 159.472C257.744 160.016 258.536 160.8 259.112 161.824C259.704 162.848 260 164.04 260 165.4C260 166.76 259.696 167.96 259.088 169C258.496 170.024 257.688 170.816 256.664 171.376C255.64 171.936 254.504 172.216 253.256 172.216ZM253.256 170.296C254.04 170.296 254.776 170.112 255.464 169.744C256.152 169.376 256.704 168.824 257.12 168.088C257.552 167.352 257.768 166.456 257.768 165.4C257.768 164.344 257.56 163.448 257.144 162.712C256.728 161.976 256.184 161.432 255.512 161.08C254.84 160.712 254.112 160.528 253.328 160.528C252.528 160.528 251.792 160.712 251.12 161.08C250.464 161.432 249.936 161.976 249.536 162.712C249.136 163.448 248.936 164.344 248.936 165.4C248.936 166.472 249.128 167.376 249.512 168.112C249.912 168.848 250.44 169.4 251.096 169.768C251.752 170.12 252.472 170.296 253.256 170.296ZM265.055 154.24V172H262.871V154.24H265.055ZM280.778 164.92C280.778 165.336 280.754 165.776 280.706 166.24H270.194C270.274 167.536 270.714 168.552 271.514 169.288C272.33 170.008 273.314 170.368 274.466 170.368C275.41 170.368 276.194 170.152 276.818 169.72C277.458 169.272 277.906 168.68 278.162 167.944H280.514C280.162 169.208 279.458 170.24 278.402 171.04C277.346 171.824 276.034 172.216 274.466 172.216C273.218 172.216 272.098 171.936 271.106 171.376C270.13 170.816 269.362 170.024 268.802 169C268.242 167.96 267.962 166.76 267.962 165.4C267.962 164.04 268.234 162.848 268.778 161.824C269.322 160.8 270.082 160.016 271.058 159.472C272.05 158.912 273.186 158.632 274.466 158.632C275.714 158.632 276.818 158.904 277.778 159.448C278.738 159.992 279.474 160.744 279.986 161.704C280.514 162.648 280.778 163.72 280.778 164.92ZM278.522 164.464C278.522 163.632 278.338 162.92 277.97 162.328C277.602 161.72 277.098 161.264 276.458 160.96C275.834 160.64 275.138 160.48 274.37 160.48C273.266 160.48 272.322 160.832 271.538 161.536C270.77 162.24 270.33 163.216 270.218 164.464H278.522ZM282.845 165.4C282.845 164.04 283.117 162.856 283.661 161.848C284.205 160.824 284.957 160.032 285.917 159.472C286.893 158.912 288.005 158.632 289.253 158.632C290.869 158.632 292.197 159.024 293.237 159.808C294.293 160.592 294.989 161.68 295.325 163.072H292.973C292.749 162.272 292.309 161.64 291.653 161.176C291.013 160.712 290.213 160.48 289.253 160.48C288.005 160.48 286.997 160.912 286.229 161.776C285.461 162.624 285.077 163.832 285.077 165.4C285.077 166.984 285.461 168.208 286.229 169.072C286.997 169.936 288.005 170.368 289.253 170.368C290.213 170.368 291.013 170.144 291.653 169.696C292.293 169.248 292.733 168.608 292.973 167.776H295.325C294.973 169.12 294.269 170.2 293.213 171.016C292.157 171.816 290.837 172.216 289.253 172.216C288.005 172.216 286.893 171.936 285.917 171.376C284.957 170.816 284.205 170.024 283.661 169C283.117 167.976 282.845 166.776 282.845 165.4ZM309.903 158.848V172H307.719V170.056C307.303 170.728 306.719 171.256 305.967 171.64C305.231 172.008 304.415 172.192 303.519 172.192C302.495 172.192 301.575 171.984 300.759 171.568C299.943 171.136 299.295 170.496 298.815 169.648C298.351 168.8 298.119 167.768 298.119 166.552V158.848H300.279V166.264C300.279 167.56 300.607 168.56 301.263 169.264C301.919 169.952 302.815 170.296 303.951 170.296C305.119 170.296 306.039 169.936 306.711 169.216C307.383 168.496 307.719 167.448 307.719 166.072V158.848H309.903ZM315.774 154.24V172H313.59V154.24H315.774ZM331.496 164.92C331.496 165.336 331.472 165.776 331.424 166.24H320.912C320.992 167.536 321.432 168.552 322.232 169.288C323.048 170.008 324.032 170.368 325.184 170.368C326.128 170.368 326.912 170.152 327.536 169.72C328.176 169.272 328.624 168.68 328.88 167.944H331.232C330.88 169.208 330.176 170.24 329.12 171.04C328.064 171.824 326.752 172.216 325.184 172.216C323.936 172.216 322.816 171.936 321.824 171.376C320.848 170.816 320.08 170.024 319.52 169C318.96 167.96 318.68 166.76 318.68 165.4C318.68 164.04 318.952 162.848 319.496 161.824C320.04 160.8 320.8 160.016 321.776 159.472C322.768 158.912 323.904 158.632 325.184 158.632C326.432 158.632 327.536 158.904 328.496 159.448C329.456 159.992 330.192 160.744 330.704 161.704C331.232 162.648 331.496 163.72 331.496 164.92ZM329.24 164.464C329.24 163.632 329.056 162.92 328.688 162.328C328.32 161.72 327.816 161.264 327.176 160.96C326.552 160.64 325.856 160.48 325.088 160.48C323.984 160.48 323.04 160.832 322.256 161.536C321.488 162.24 321.048 163.216 320.936 164.464H329.24ZM339.035 172.216C338.027 172.216 337.123 172.048 336.323 171.712C335.523 171.36 334.891 170.88 334.427 170.272C333.963 169.648 333.707 168.936 333.659 168.136H335.915C335.979 168.792 336.283 169.328 336.827 169.744C337.387 170.16 338.115 170.368 339.011 170.368C339.843 170.368 340.499 170.184 340.979 169.816C341.459 169.448 341.699 168.984 341.699 168.424C341.699 167.848 341.443 167.424 340.931 167.152C340.419 166.864 339.627 166.584 338.555 166.312C337.579 166.056 336.779 165.8 336.155 165.544C335.547 165.272 335.019 164.88 334.571 164.368C334.139 163.84 333.923 163.152 333.923 162.304C333.923 161.632 334.123 161.016 334.523 160.456C334.923 159.896 335.491 159.456 336.227 159.136C336.963 158.8 337.803 158.632 338.747 158.632C340.203 158.632 341.379 159 342.275 159.736C343.171 160.472 343.651 161.48 343.715 162.76H341.531C341.483 162.072 341.203 161.52 340.691 161.104C340.195 160.688 339.523 160.48 338.675 160.48C337.891 160.48 337.267 160.648 336.803 160.984C336.339 161.32 336.107 161.76 336.107 162.304C336.107 162.736 336.243 163.096 336.515 163.384C336.803 163.656 337.155 163.88 337.571 164.056C338.003 164.216 338.595 164.4 339.347 164.608C340.291 164.864 341.059 165.12 341.651 165.376C342.243 165.616 342.747 165.984 343.163 166.48C343.595 166.976 343.819 167.624 343.835 168.424C343.835 169.144 343.635 169.792 343.235 170.368C342.835 170.944 342.267 171.4 341.531 171.736C340.811 172.056 339.979 172.216 339.035 172.216ZM355.981 160.648V168.4C355.981 169.04 356.117 169.496 356.389 169.768C356.661 170.024 357.133 170.152 357.805 170.152H359.413V172H357.445C356.229 172 355.317 171.72 354.709 171.16C354.101 170.6 353.797 169.68 353.797 168.4V160.648H352.093V158.848H353.797V155.536H355.981V158.848H359.413V160.648H355.981ZM368.587 158.608C369.579 158.608 370.475 158.824 371.275 159.256C372.075 159.672 372.699 160.304 373.147 161.152C373.611 162 373.843 163.032 373.843 164.248V172H371.683V164.56C371.683 163.248 371.355 162.248 370.699 161.56C370.043 160.856 369.147 160.504 368.011 160.504C366.859 160.504 365.939 160.864 365.251 161.584C364.579 162.304 364.243 163.352 364.243 164.728V172H362.059V154.24H364.243V160.72C364.675 160.048 365.267 159.528 366.019 159.16C366.787 158.792 367.643 158.608 368.587 158.608ZM376.595 165.376C376.595 164.032 376.867 162.856 377.411 161.848C377.955 160.824 378.699 160.032 379.643 159.472C380.603 158.912 381.667 158.632 382.835 158.632C383.987 158.632 384.987 158.88 385.835 159.376C386.683 159.872 387.315 160.496 387.731 161.248V158.848H389.939V172H387.731V169.552C387.299 170.32 386.651 170.96 385.787 171.472C384.939 171.968 383.947 172.216 382.811 172.216C381.643 172.216 380.587 171.928 379.643 171.352C378.699 170.776 377.955 169.968 377.411 168.928C376.867 167.888 376.595 166.704 376.595 165.376ZM387.731 165.4C387.731 164.408 387.531 163.544 387.131 162.808C386.731 162.072 386.187 161.512 385.499 161.128C384.827 160.728 384.083 160.528 383.267 160.528C382.451 160.528 381.707 160.72 381.035 161.104C380.363 161.488 379.827 162.048 379.427 162.784C379.027 163.52 378.827 164.384 378.827 165.376C378.827 166.384 379.027 167.264 379.427 168.016C379.827 168.752 380.363 169.32 381.035 169.72C381.707 170.104 382.451 170.296 383.267 170.296C384.083 170.296 384.827 170.104 385.499 169.72C386.187 169.32 386.731 168.752 387.131 168.016C387.531 167.264 387.731 166.392 387.731 165.4ZM396.293 160.648V168.4C396.293 169.04 396.429 169.496 396.701 169.768C396.973 170.024 397.445 170.152 398.117 170.152H399.725V172H397.757C396.541 172 395.629 171.72 395.021 171.16C394.413 170.6 394.109 169.68 394.109 168.4V160.648H392.405V158.848H394.109V155.536H396.293V158.848H399.725V160.648H396.293ZM413.426 172.216C412.418 172.216 411.514 172.048 410.714 171.712C409.914 171.36 409.282 170.88 408.818 170.272C408.354 169.648 408.098 168.936 408.05 168.136H410.306C410.37 168.792 410.674 169.328 411.218 169.744C411.778 170.16 412.506 170.368 413.402 170.368C414.234 170.368 414.89 170.184 415.37 169.816C415.85 169.448 416.09 168.984 416.09 168.424C416.09 167.848 415.834 167.424 415.322 167.152C414.81 166.864 414.018 166.584 412.946 166.312C411.97 166.056 411.17 165.8 410.546 165.544C409.938 165.272 409.41 164.88 408.962 164.368C408.53 163.84 408.314 163.152 408.314 162.304C408.314 161.632 408.514 161.016 408.914 160.456C409.314 159.896 409.882 159.456 410.618 159.136C411.354 158.8 412.194 158.632 413.138 158.632C414.594 158.632 415.77 159 416.666 159.736C417.562 160.472 418.042 161.48 418.106 162.76H415.922C415.874 162.072 415.594 161.52 415.082 161.104C414.586 160.688 413.914 160.48 413.066 160.48C412.282 160.48 411.658 160.648 411.194 160.984C410.73 161.32 410.498 161.76 410.498 162.304C410.498 162.736 410.634 163.096 410.906 163.384C411.194 163.656 411.546 163.88 411.962 164.056C412.394 164.216 412.986 164.4 413.738 164.608C414.682 164.864 415.45 165.12 416.042 165.376C416.634 165.616 417.138 165.984 417.554 166.48C417.986 166.976 418.21 167.624 418.226 168.424C418.226 169.144 418.026 169.792 417.626 170.368C417.226 170.944 416.658 171.4 415.922 171.736C415.202 172.056 414.37 172.216 413.426 172.216ZM423.973 160.648V168.4C423.973 169.04 424.109 169.496 424.381 169.768C424.653 170.024 425.125 170.152 425.797 170.152H427.405V172H425.437C424.221 172 423.309 171.72 422.701 171.16C422.093 170.6 421.789 169.68 421.789 168.4V160.648H420.085V158.848H421.789V155.536H423.973V158.848H427.405V160.648H423.973ZM435.787 172.216C434.555 172.216 433.435 171.936 432.427 171.376C431.435 170.816 430.651 170.024 430.075 169C429.515 167.96 429.235 166.76 429.235 165.4C429.235 164.056 429.523 162.872 430.099 161.848C430.691 160.808 431.491 160.016 432.499 159.472C433.507 158.912 434.635 158.632 435.883 158.632C437.131 158.632 438.259 158.912 439.267 159.472C440.275 160.016 441.067 160.8 441.643 161.824C442.235 162.848 442.531 164.04 442.531 165.4C442.531 166.76 442.227 167.96 441.619 169C441.027 170.024 440.219 170.816 439.195 171.376C438.171 171.936 437.035 172.216 435.787 172.216ZM435.787 170.296C436.571 170.296 437.307 170.112 437.995 169.744C438.683 169.376 439.235 168.824 439.651 168.088C440.083 167.352 440.299 166.456 440.299 165.4C440.299 164.344 440.091 163.448 439.675 162.712C439.259 161.976 438.715 161.432 438.043 161.08C437.371 160.712 436.643 160.528 435.859 160.528C435.059 160.528 434.323 160.712 433.651 161.08C432.995 161.432 432.467 161.976 432.067 162.712C431.667 163.448 431.467 164.344 431.467 165.4C431.467 166.472 431.659 167.376 432.043 168.112C432.443 168.848 432.971 169.4 433.627 169.768C434.283 170.12 435.003 170.296 435.787 170.296ZM447.587 160.984C447.971 160.232 448.515 159.648 449.219 159.232C449.939 158.816 450.811 158.608 451.835 158.608V160.864H451.259C448.811 160.864 447.587 162.192 447.587 164.848V172H445.403V158.848H447.587V160.984ZM466.356 164.92C466.356 165.336 466.332 165.776 466.284 166.24H455.772C455.852 167.536 456.292 168.552 457.092 169.288C457.908 170.008 458.892 170.368 460.044 170.368C460.988 170.368 461.772 170.152 462.396 169.72C463.036 169.272 463.484 168.68 463.74 167.944H466.092C465.74 169.208 465.036 170.24 463.98 171.04C462.924 171.824 461.612 172.216 460.044 172.216C458.796 172.216 457.676 171.936 456.684 171.376C455.708 170.816 454.94 170.024 454.38 169C453.82 167.96 453.54 166.76 453.54 165.4C453.54 164.04 453.812 162.848 454.356 161.824C454.9 160.8 455.66 160.016 456.636 159.472C457.628 158.912 458.764 158.632 460.044 158.632C461.292 158.632 462.396 158.904 463.356 159.448C464.316 159.992 465.052 160.744 465.564 161.704C466.092 162.648 466.356 163.72 466.356 164.92ZM464.1 164.464C464.1 163.632 463.916 162.92 463.548 162.328C463.18 161.72 462.676 161.264 462.036 160.96C461.412 160.64 460.716 160.48 459.948 160.48C458.844 160.48 457.9 160.832 457.116 161.536C456.348 162.24 455.908 163.216 455.796 164.464H464.1ZM487.637 164.92C487.637 165.336 487.613 165.776 487.565 166.24H477.053C477.133 167.536 477.573 168.552 478.373 169.288C479.189 170.008 480.173 170.368 481.325 170.368C482.269 170.368 483.053 170.152 483.677 169.72C484.317 169.272 484.765 168.68 485.021 167.944H487.373C487.021 169.208 486.317 170.24 485.261 171.04C484.205 171.824 482.893 172.216 481.325 172.216C480.077 172.216 478.957 171.936 477.965 171.376C476.989 170.816 476.221 170.024 475.661 169C475.101 167.96 474.821 166.76 474.821 165.4C474.821 164.04 475.093 162.848 475.637 161.824C476.181 160.8 476.941 160.016 477.917 159.472C478.909 158.912 480.045 158.632 481.325 158.632C482.573 158.632 483.677 158.904 484.637 159.448C485.597 159.992 486.333 160.744 486.845 161.704C487.373 162.648 487.637 163.72 487.637 164.92ZM485.381 164.464C485.381 163.632 485.197 162.92 484.829 162.328C484.461 161.72 483.957 161.264 483.317 160.96C482.693 160.64 481.997 160.48 481.229 160.48C480.125 160.48 479.181 160.832 478.397 161.536C477.629 162.24 477.189 163.216 477.077 164.464H485.381ZM496.928 158.608C498.528 158.608 499.824 159.096 500.816 160.072C501.808 161.032 502.304 162.424 502.304 164.248V172H500.144V164.56C500.144 163.248 499.816 162.248 499.16 161.56C498.504 160.856 497.608 160.504 496.472 160.504C495.32 160.504 494.4 160.864 493.712 161.584C493.04 162.304 492.704 163.352 492.704 164.728V172H490.52V158.848H492.704V160.72C493.136 160.048 493.72 159.528 494.456 159.16C495.208 158.792 496.032 158.608 496.928 158.608ZM517.871 164.92C517.871 165.336 517.847 165.776 517.799 166.24H507.287C507.367 167.536 507.807 168.552 508.607 169.288C509.423 170.008 510.407 170.368 511.559 170.368C512.503 170.368 513.287 170.152 513.911 169.72C514.551 169.272 514.999 168.68 515.255 167.944H517.607C517.255 169.208 516.551 170.24 515.495 171.04C514.439 171.824 513.127 172.216 511.559 172.216C510.311 172.216 509.191 171.936 508.199 171.376C507.223 170.816 506.455 170.024 505.895 169C505.335 167.96 505.055 166.76 505.055 165.4C505.055 164.04 505.327 162.848 505.871 161.824C506.415 160.8 507.175 160.016 508.151 159.472C509.143 158.912 510.279 158.632 511.559 158.632C512.807 158.632 513.911 158.904 514.871 159.448C515.831 159.992 516.567 160.744 517.079 161.704C517.607 162.648 517.871 163.72 517.871 164.92ZM515.615 164.464C515.615 163.632 515.431 162.92 515.063 162.328C514.695 161.72 514.191 161.264 513.551 160.96C512.927 160.64 512.231 160.48 511.463 160.48C510.359 160.48 509.415 160.832 508.631 161.536C507.863 162.24 507.423 163.216 507.311 164.464H515.615ZM522.938 160.984C523.322 160.232 523.866 159.648 524.57 159.232C525.29 158.816 526.162 158.608 527.186 158.608V160.864H526.61C524.162 160.864 522.938 162.192 522.938 164.848V172H520.754V158.848H522.938V160.984ZM535.131 158.632C536.267 158.632 537.259 158.88 538.107 159.376C538.971 159.872 539.611 160.496 540.027 161.248V158.848H542.235V172.288C542.235 173.488 541.979 174.552 541.467 175.48C540.955 176.424 540.219 177.16 539.259 177.688C538.315 178.216 537.211 178.48 535.947 178.48C534.219 178.48 532.779 178.072 531.627 177.256C530.475 176.44 529.795 175.328 529.587 173.92H531.747C531.987 174.72 532.483 175.36 533.235 175.84C533.987 176.336 534.891 176.584 535.947 176.584C537.147 176.584 538.123 176.208 538.875 175.456C539.643 174.704 540.027 173.648 540.027 172.288V169.528C539.595 170.296 538.955 170.936 538.107 171.448C537.259 171.96 536.267 172.216 535.131 172.216C533.963 172.216 532.899 171.928 531.939 171.352C530.995 170.776 530.251 169.968 529.707 168.928C529.163 167.888 528.891 166.704 528.891 165.376C528.891 164.032 529.163 162.856 529.707 161.848C530.251 160.824 530.995 160.032 531.939 159.472C532.899 158.912 533.963 158.632 535.131 158.632ZM540.027 165.4C540.027 164.408 539.827 163.544 539.427 162.808C539.027 162.072 538.483 161.512 537.795 161.128C537.123 160.728 536.379 160.528 535.563 160.528C534.747 160.528 534.003 160.72 533.331 161.104C532.659 161.488 532.123 162.048 531.723 162.784C531.323 163.52 531.123 164.384 531.123 165.376C531.123 166.384 531.323 167.264 531.723 168.016C532.123 168.752 532.659 169.32 533.331 169.72C534.003 170.104 534.747 170.296 535.563 170.296C536.379 170.296 537.123 170.104 537.795 169.72C538.483 169.32 539.027 168.752 539.427 168.016C539.827 167.264 540.027 166.392 540.027 165.4ZM557.254 158.848L549.334 178.192H547.078L549.67 171.856L544.366 158.848H546.79L550.918 169.504L554.998 158.848H557.254Z" fill="#8C8F94"/>
<path d="M62.432 172.168C60.88 172.168 59.464 171.808 58.184 171.088C56.904 170.352 55.888 169.336 55.136 168.04C54.4 166.728 54.032 165.256 54.032 163.624C54.032 161.992 54.4 160.528 55.136 159.232C55.888 157.92 56.904 156.904 58.184 156.184C59.464 155.448 60.88 155.08 62.432 155.08C64 155.08 65.424 155.448 66.704 156.184C67.984 156.904 68.992 157.912 69.728 159.208C70.464 160.504 70.832 161.976 70.832 163.624C70.832 165.272 70.464 166.744 69.728 168.04C68.992 169.336 67.984 170.352 66.704 171.088C65.424 171.808 64 172.168 62.432 172.168ZM62.432 170.272C63.6 170.272 64.648 170 65.576 169.456C66.52 168.912 67.256 168.136 67.784 167.128C68.328 166.12 68.6 164.952 68.6 163.624C68.6 162.28 68.328 161.112 67.784 160.12C67.256 159.112 66.528 158.336 65.6 157.792C64.672 157.248 63.616 156.976 62.432 156.976C61.248 156.976 60.192 157.248 59.264 157.792C58.336 158.336 57.6 159.112 57.056 160.12C56.528 161.112 56.264 162.28 56.264 163.624C56.264 164.952 56.528 166.12 57.056 167.128C57.6 168.136 58.336 168.912 59.264 169.456C60.208 170 61.264 170.272 62.432 170.272ZM84.8992 160.168C84.8992 161.56 84.4192 162.72 83.4592 163.648C82.5152 164.56 81.0672 165.016 79.1152 165.016H75.8992V172H73.7152V155.272H79.1152C81.0032 155.272 82.4352 155.728 83.4112 156.64C84.4032 157.552 84.8992 158.728 84.8992 160.168ZM79.1152 163.216C80.3312 163.216 81.2272 162.952 81.8032 162.424C82.3792 161.896 82.6672 161.144 82.6672 160.168C82.6672 158.104 81.4832 157.072 79.1152 157.072H75.8992V163.216H79.1152ZM97.9096 155.272V157.048H93.3496V172H91.1656V157.048H86.5816V155.272H97.9096ZM109.718 162.28V164.128H100.142V162.28H109.718ZM112.881 156.64V154.648H117.393V172H115.185V156.64H112.881ZM132.208 156.544H123.784V162.016C124.152 161.504 124.696 161.088 125.416 160.768C126.136 160.432 126.912 160.264 127.744 160.264C129.072 160.264 130.152 160.544 130.984 161.104C131.816 161.648 132.408 162.36 132.76 163.24C133.128 164.104 133.312 165.024 133.312 166C133.312 167.152 133.096 168.184 132.664 169.096C132.232 170.008 131.568 170.728 130.672 171.256C129.792 171.784 128.696 172.048 127.384 172.048C125.704 172.048 124.344 171.616 123.304 170.752C122.264 169.888 121.632 168.736 121.408 167.296H123.544C123.752 168.208 124.192 168.92 124.864 169.432C125.536 169.944 126.384 170.2 127.408 170.2C128.672 170.2 129.624 169.824 130.264 169.072C130.904 168.304 131.224 167.296 131.224 166.048C131.224 164.8 130.904 163.84 130.264 163.168C129.624 162.48 128.68 162.136 127.432 162.136C126.584 162.136 125.84 162.344 125.2 162.76C124.576 163.16 124.12 163.712 123.832 164.416H121.768V154.624H132.208V156.544ZM145.887 158.776C145.535 157 144.439 156.112 142.599 156.112C141.175 156.112 140.111 156.664 139.407 157.768C138.703 158.856 138.359 160.656 138.375 163.168C138.743 162.336 139.351 161.688 140.199 161.224C141.063 160.744 142.023 160.504 143.079 160.504C144.727 160.504 146.039 161.016 147.015 162.04C148.007 163.064 148.503 164.48 148.503 166.288C148.503 167.376 148.287 168.352 147.855 169.216C147.439 170.08 146.799 170.768 145.935 171.28C145.087 171.792 144.055 172.048 142.839 172.048C141.191 172.048 139.903 171.68 138.975 170.944C138.047 170.208 137.399 169.192 137.031 167.896C136.663 166.6 136.479 165 136.479 163.096C136.479 157.224 138.527 154.288 142.623 154.288C144.191 154.288 145.423 154.712 146.319 155.56C147.215 156.408 147.743 157.48 147.903 158.776H145.887ZM142.623 162.352C141.935 162.352 141.287 162.496 140.679 162.784C140.071 163.056 139.575 163.48 139.191 164.056C138.823 164.616 138.639 165.304 138.639 166.12C138.639 167.336 138.991 168.328 139.695 169.096C140.399 169.848 141.407 170.224 142.719 170.224C143.839 170.224 144.727 169.88 145.383 169.192C146.055 168.488 146.391 167.544 146.391 166.36C146.391 165.112 146.071 164.136 145.431 163.432C144.791 162.712 143.855 162.352 142.623 162.352ZM162.129 156.352L155.457 172H153.249L160.017 156.568H150.753V154.696H162.129V156.352Z" fill="#8C8F94"/>
<rect x="181.5" y="153.5" width="22" height="22" rx="2.5" fill="#161719" stroke="#8C8F94"/>
<path d="M239.736 107.272V124H237.552V116.416H229.032V124H226.848V107.272H229.032V114.616H237.552V107.272H239.736ZM249.201 124.216C247.969 124.216 246.849 123.936 245.841 123.376C244.849 122.816 244.065 122.024 243.489 121C242.929 119.96 242.649 118.76 242.649 117.4C242.649 116.056 242.937 114.872 243.513 113.848C244.105 112.808 244.905 112.016 245.913 111.472C246.921 110.912 248.049 110.632 249.297 110.632C250.545 110.632 251.673 110.912 252.681 111.472C253.689 112.016 254.481 112.8 255.057 113.824C255.649 114.848 255.945 116.04 255.945 117.4C255.945 118.76 255.641 119.96 255.033 121C254.441 122.024 253.633 122.816 252.609 123.376C251.585 123.936 250.449 124.216 249.201 124.216ZM249.201 122.296C249.985 122.296 250.721 122.112 251.409 121.744C252.097 121.376 252.649 120.824 253.065 120.088C253.497 119.352 253.713 118.456 253.713 117.4C253.713 116.344 253.505 115.448 253.089 114.712C252.673 113.976 252.129 113.432 251.457 113.08C250.785 112.712 250.057 112.528 249.273 112.528C248.473 112.528 247.737 112.712 247.065 113.08C246.409 113.432 245.881 113.976 245.481 114.712C245.081 115.448 244.881 116.344 244.881 117.4C244.881 118.472 245.073 119.376 245.457 120.112C245.857 120.848 246.385 121.4 247.041 121.768C247.697 122.12 248.417 122.296 249.201 122.296ZM261.001 112.984C261.385 112.232 261.929 111.648 262.633 111.232C263.353 110.816 264.225 110.608 265.249 110.608V112.864H264.673C262.225 112.864 261.001 114.192 261.001 116.848V124H258.817V110.848H261.001V112.984ZM283.586 110.608C284.61 110.608 285.522 110.824 286.322 111.256C287.122 111.672 287.754 112.304 288.218 113.152C288.682 114 288.914 115.032 288.914 116.248V124H286.754V116.56C286.754 115.248 286.426 114.248 285.77 113.56C285.13 112.856 284.258 112.504 283.154 112.504C282.018 112.504 281.114 112.872 280.442 113.608C279.77 114.328 279.434 115.376 279.434 116.752V124H277.274V116.56C277.274 115.248 276.946 114.248 276.29 113.56C275.65 112.856 274.778 112.504 273.674 112.504C272.538 112.504 271.634 112.872 270.962 113.608C270.29 114.328 269.954 115.376 269.954 116.752V124H267.77V110.848H269.954V112.744C270.386 112.056 270.962 111.528 271.682 111.16C272.418 110.792 273.226 110.608 274.106 110.608C275.21 110.608 276.186 110.856 277.034 111.352C277.882 111.848 278.514 112.576 278.93 113.536C279.298 112.608 279.906 111.888 280.754 111.376C281.602 110.864 282.546 110.608 283.586 110.608ZM298.232 124.216C297 124.216 295.88 123.936 294.872 123.376C293.88 122.816 293.096 122.024 292.52 121C291.96 119.96 291.68 118.76 291.68 117.4C291.68 116.056 291.968 114.872 292.544 113.848C293.136 112.808 293.936 112.016 294.944 111.472C295.952 110.912 297.08 110.632 298.328 110.632C299.576 110.632 300.704 110.912 301.712 111.472C302.72 112.016 303.512 112.8 304.088 113.824C304.68 114.848 304.976 116.04 304.976 117.4C304.976 118.76 304.672 119.96 304.064 121C303.472 122.024 302.664 122.816 301.64 123.376C300.616 123.936 299.48 124.216 298.232 124.216ZM298.232 122.296C299.016 122.296 299.752 122.112 300.44 121.744C301.128 121.376 301.68 120.824 302.096 120.088C302.528 119.352 302.744 118.456 302.744 117.4C302.744 116.344 302.536 115.448 302.12 114.712C301.704 113.976 301.16 113.432 300.488 113.08C299.816 112.712 299.088 112.528 298.304 112.528C297.504 112.528 296.768 112.712 296.096 113.08C295.44 113.432 294.912 113.976 294.512 114.712C294.112 115.448 293.912 116.344 293.912 117.4C293.912 118.472 294.104 119.376 294.488 120.112C294.888 120.848 295.416 121.4 296.072 121.768C296.728 122.12 297.448 122.296 298.232 122.296ZM314.256 110.608C315.856 110.608 317.152 111.096 318.144 112.072C319.136 113.032 319.632 114.424 319.632 116.248V124H317.472V116.56C317.472 115.248 317.144 114.248 316.488 113.56C315.832 112.856 314.936 112.504 313.8 112.504C312.648 112.504 311.728 112.864 311.04 113.584C310.368 114.304 310.032 115.352 310.032 116.728V124H307.848V110.848H310.032V112.72C310.464 112.048 311.048 111.528 311.784 111.16C312.536 110.792 313.36 110.608 314.256 110.608ZM335.2 116.92C335.2 117.336 335.176 117.776 335.128 118.24H324.616C324.696 119.536 325.136 120.552 325.936 121.288C326.752 122.008 327.736 122.368 328.888 122.368C329.832 122.368 330.616 122.152 331.24 121.72C331.88 121.272 332.328 120.68 332.584 119.944H334.936C334.584 121.208 333.88 122.24 332.824 123.04C331.768 123.824 330.456 124.216 328.888 124.216C327.64 124.216 326.52 123.936 325.528 123.376C324.552 122.816 323.784 122.024 323.224 121C322.664 119.96 322.384 118.76 322.384 117.4C322.384 116.04 322.656 114.848 323.2 113.824C323.744 112.8 324.504 112.016 325.48 111.472C326.472 110.912 327.608 110.632 328.888 110.632C330.136 110.632 331.24 110.904 332.2 111.448C333.16 111.992 333.896 112.744 334.408 113.704C334.936 114.648 335.2 115.72 335.2 116.92ZM332.944 116.464C332.944 115.632 332.76 114.92 332.392 114.328C332.024 113.72 331.52 113.264 330.88 112.96C330.256 112.64 329.56 112.48 328.792 112.48C327.688 112.48 326.744 112.832 325.96 113.536C325.192 114.24 324.752 115.216 324.64 116.464H332.944ZM342.738 124.216C341.73 124.216 340.826 124.048 340.026 123.712C339.226 123.36 338.594 122.88 338.13 122.272C337.666 121.648 337.41 120.936 337.362 120.136H339.618C339.682 120.792 339.986 121.328 340.53 121.744C341.09 122.16 341.818 122.368 342.714 122.368C343.546 122.368 344.202 122.184 344.682 121.816C345.162 121.448 345.402 120.984 345.402 120.424C345.402 119.848 345.146 119.424 344.634 119.152C344.122 118.864 343.33 118.584 342.258 118.312C341.282 118.056 340.482 117.8 339.858 117.544C339.25 117.272 338.722 116.88 338.274 116.368C337.842 115.84 337.626 115.152 337.626 114.304C337.626 113.632 337.826 113.016 338.226 112.456C338.626 111.896 339.194 111.456 339.93 111.136C340.666 110.8 341.506 110.632 342.45 110.632C343.906 110.632 345.082 111 345.978 111.736C346.874 112.472 347.354 113.48 347.418 114.76H345.234C345.186 114.072 344.906 113.52 344.394 113.104C343.898 112.688 343.226 112.48 342.378 112.48C341.594 112.48 340.97 112.648 340.506 112.984C340.042 113.32 339.81 113.76 339.81 114.304C339.81 114.736 339.946 115.096 340.218 115.384C340.506 115.656 340.858 115.88 341.274 116.056C341.706 116.216 342.298 116.4 343.05 116.608C343.994 116.864 344.762 117.12 345.354 117.376C345.946 117.616 346.45 117.984 346.866 118.48C347.298 118.976 347.522 119.624 347.538 120.424C347.538 121.144 347.338 121.792 346.938 122.368C346.538 122.944 345.97 123.4 345.234 123.736C344.514 124.056 343.682 124.216 342.738 124.216ZM359.684 112.648V120.4C359.684 121.04 359.82 121.496 360.092 121.768C360.364 122.024 360.836 122.152 361.508 122.152H363.116V124H361.148C359.932 124 359.02 123.72 358.412 123.16C357.804 122.6 357.5 121.68 357.5 120.4V112.648H355.796V110.848H357.5V107.536H359.684V110.848H363.116V112.648H359.684ZM372.29 110.608C373.282 110.608 374.178 110.824 374.978 111.256C375.778 111.672 376.402 112.304 376.85 113.152C377.314 114 377.546 115.032 377.546 116.248V124H375.386V116.56C375.386 115.248 375.058 114.248 374.402 113.56C373.746 112.856 372.85 112.504 371.714 112.504C370.562 112.504 369.642 112.864 368.954 113.584C368.282 114.304 367.946 115.352 367.946 116.728V124H365.762V106.24H367.946V112.72C368.378 112.048 368.97 111.528 369.722 111.16C370.49 110.792 371.346 110.608 372.29 110.608ZM380.298 117.376C380.298 116.032 380.57 114.856 381.114 113.848C381.658 112.824 382.402 112.032 383.346 111.472C384.306 110.912 385.37 110.632 386.538 110.632C387.69 110.632 388.69 110.88 389.538 111.376C390.386 111.872 391.018 112.496 391.434 113.248V110.848H393.642V124H391.434V121.552C391.002 122.32 390.354 122.96 389.49 123.472C388.642 123.968 387.65 124.216 386.514 124.216C385.346 124.216 384.29 123.928 383.346 123.352C382.402 122.776 381.658 121.968 381.114 120.928C380.57 119.888 380.298 118.704 380.298 117.376ZM391.434 117.4C391.434 116.408 391.234 115.544 390.834 114.808C390.434 114.072 389.89 113.512 389.202 113.128C388.53 112.728 387.786 112.528 386.97 112.528C386.154 112.528 385.41 112.72 384.738 113.104C384.066 113.488 383.53 114.048 383.13 114.784C382.73 115.52 382.53 116.384 382.53 117.376C382.53 118.384 382.73 119.264 383.13 120.016C383.53 120.752 384.066 121.32 384.738 121.72C385.41 122.104 386.154 122.296 386.97 122.296C387.786 122.296 388.53 122.104 389.202 121.72C389.89 121.32 390.434 120.752 390.834 120.016C391.234 119.264 391.434 118.392 391.434 117.4ZM399.996 112.648V120.4C399.996 121.04 400.132 121.496 400.404 121.768C400.676 122.024 401.148 122.152 401.82 122.152H403.428V124H401.46C400.244 124 399.332 123.72 398.724 123.16C398.116 122.6 397.812 121.68 397.812 120.4V112.648H396.108V110.848H397.812V107.536H399.996V110.848H403.428V112.648H399.996ZM411.657 117.4C411.657 116.04 411.929 114.856 412.473 113.848C413.017 112.824 413.769 112.032 414.729 111.472C415.705 110.912 416.817 110.632 418.065 110.632C419.681 110.632 421.009 111.024 422.049 111.808C423.105 112.592 423.801 113.68 424.137 115.072H421.785C421.561 114.272 421.121 113.64 420.465 113.176C419.825 112.712 419.025 112.48 418.065 112.48C416.817 112.48 415.809 112.912 415.041 113.776C414.273 114.624 413.889 115.832 413.889 117.4C413.889 118.984 414.273 120.208 415.041 121.072C415.809 121.936 416.817 122.368 418.065 122.368C419.025 122.368 419.825 122.144 420.465 121.696C421.105 121.248 421.545 120.608 421.785 119.776H424.137C423.785 121.12 423.081 122.2 422.025 123.016C420.969 123.816 419.649 124.216 418.065 124.216C416.817 124.216 415.705 123.936 414.729 123.376C413.769 122.816 413.017 122.024 412.473 121C411.929 119.976 411.657 118.776 411.657 117.4ZM432.787 124.216C431.555 124.216 430.435 123.936 429.427 123.376C428.435 122.816 427.651 122.024 427.075 121C426.515 119.96 426.235 118.76 426.235 117.4C426.235 116.056 426.523 114.872 427.099 113.848C427.691 112.808 428.491 112.016 429.499 111.472C430.507 110.912 431.635 110.632 432.883 110.632C434.131 110.632 435.259 110.912 436.267 111.472C437.275 112.016 438.067 112.8 438.643 113.824C439.235 114.848 439.531 116.04 439.531 117.4C439.531 118.76 439.227 119.96 438.619 121C438.027 122.024 437.219 122.816 436.195 123.376C435.171 123.936 434.035 124.216 432.787 124.216ZM432.787 122.296C433.571 122.296 434.307 122.112 434.995 121.744C435.683 121.376 436.235 120.824 436.651 120.088C437.083 119.352 437.299 118.456 437.299 117.4C437.299 116.344 437.091 115.448 436.675 114.712C436.259 113.976 435.715 113.432 435.043 113.08C434.371 112.712 433.643 112.528 432.859 112.528C432.059 112.528 431.323 112.712 430.651 113.08C429.995 113.432 429.467 113.976 429.067 114.712C428.667 115.448 428.467 116.344 428.467 117.4C428.467 118.472 428.659 119.376 429.043 120.112C429.443 120.848 429.971 121.4 430.627 121.768C431.283 122.12 432.003 122.296 432.787 122.296ZM448.811 110.608C450.411 110.608 451.707 111.096 452.699 112.072C453.691 113.032 454.187 114.424 454.187 116.248V124H452.027V116.56C452.027 115.248 451.699 114.248 451.043 113.56C450.387 112.856 449.491 112.504 448.355 112.504C447.203 112.504 446.283 112.864 445.595 113.584C444.923 114.304 444.587 115.352 444.587 116.728V124H442.403V110.848H444.587V112.72C445.019 112.048 445.603 111.528 446.339 111.16C447.091 110.792 447.915 110.608 448.811 110.608ZM460.418 112.648V120.4C460.418 121.04 460.554 121.496 460.826 121.768C461.098 122.024 461.57 122.152 462.242 122.152H463.85V124H461.882C460.666 124 459.754 123.72 459.146 123.16C458.538 122.6 458.234 121.68 458.234 120.4V112.648H456.53V110.848H458.234V107.536H460.418V110.848H463.85V112.648H460.418ZM468.68 112.984C469.064 112.232 469.608 111.648 470.312 111.232C471.032 110.816 471.904 110.608 472.928 110.608V112.864H472.352C469.904 112.864 468.68 114.192 468.68 116.848V124H466.496V110.848H468.68V112.984ZM481.186 124.216C479.954 124.216 478.834 123.936 477.826 123.376C476.834 122.816 476.05 122.024 475.474 121C474.914 119.96 474.634 118.76 474.634 117.4C474.634 116.056 474.922 114.872 475.498 113.848C476.09 112.808 476.89 112.016 477.898 111.472C478.906 110.912 480.034 110.632 481.282 110.632C482.53 110.632 483.658 110.912 484.666 111.472C485.674 112.016 486.466 112.8 487.042 113.824C487.634 114.848 487.93 116.04 487.93 117.4C487.93 118.76 487.626 119.96 487.018 121C486.426 122.024 485.618 122.816 484.594 123.376C483.57 123.936 482.434 124.216 481.186 124.216ZM481.186 122.296C481.97 122.296 482.706 122.112 483.394 121.744C484.082 121.376 484.634 120.824 485.05 120.088C485.482 119.352 485.698 118.456 485.698 117.4C485.698 116.344 485.49 115.448 485.074 114.712C484.658 113.976 484.114 113.432 483.442 113.08C482.77 112.712 482.042 112.528 481.258 112.528C480.458 112.528 479.722 112.712 479.05 113.08C478.394 113.432 477.866 113.976 477.466 114.712C477.066 115.448 476.866 116.344 476.866 117.4C476.866 118.472 477.058 119.376 477.442 120.112C477.842 120.848 478.37 121.4 479.026 121.768C479.682 122.12 480.402 122.296 481.186 122.296ZM492.985 106.24V124H490.801V106.24H492.985ZM518.922 110.608C519.946 110.608 520.858 110.824 521.658 111.256C522.458 111.672 523.09 112.304 523.554 113.152C524.018 114 524.25 115.032 524.25 116.248V124H522.09V116.56C522.09 115.248 521.762 114.248 521.106 113.56C520.466 112.856 519.594 112.504 518.49 112.504C517.354 112.504 516.45 112.872 515.778 113.608C515.106 114.328 514.77 115.376 514.77 116.752V124H512.61V116.56C512.61 115.248 512.282 114.248 511.626 113.56C510.986 112.856 510.114 112.504 509.01 112.504C507.874 112.504 506.97 112.872 506.298 113.608C505.626 114.328 505.29 115.376 505.29 116.752V124H503.106V110.848H505.29V112.744C505.722 112.056 506.298 111.528 507.018 111.16C507.754 110.792 508.562 110.608 509.442 110.608C510.546 110.608 511.522 110.856 512.37 111.352C513.218 111.848 513.85 112.576 514.266 113.536C514.634 112.608 515.242 111.888 516.09 111.376C516.938 110.864 517.882 110.608 518.922 110.608ZM533.568 124.216C532.336 124.216 531.216 123.936 530.208 123.376C529.216 122.816 528.432 122.024 527.856 121C527.296 119.96 527.016 118.76 527.016 117.4C527.016 116.056 527.304 114.872 527.88 113.848C528.472 112.808 529.272 112.016 530.28 111.472C531.288 110.912 532.416 110.632 533.664 110.632C534.912 110.632 536.04 110.912 537.048 111.472C538.056 112.016 538.848 112.8 539.424 113.824C540.016 114.848 540.312 116.04 540.312 117.4C540.312 118.76 540.008 119.96 539.4 121C538.808 122.024 538 122.816 536.976 123.376C535.952 123.936 534.816 124.216 533.568 124.216ZM533.568 122.296C534.352 122.296 535.088 122.112 535.776 121.744C536.464 121.376 537.016 120.824 537.432 120.088C537.864 119.352 538.08 118.456 538.08 117.4C538.08 116.344 537.872 115.448 537.456 114.712C537.04 113.976 536.496 113.432 535.824 113.08C535.152 112.712 534.424 112.528 533.64 112.528C532.84 112.528 532.104 112.712 531.432 113.08C530.776 113.432 530.248 113.976 529.848 114.712C529.448 115.448 529.248 116.344 529.248 117.4C529.248 118.472 529.44 119.376 529.824 120.112C530.224 120.848 530.752 121.4 531.408 121.768C532.064 122.12 532.784 122.296 533.568 122.296ZM548.92 124.216C547.688 124.216 546.568 123.936 545.56 123.376C544.568 122.816 543.784 122.024 543.208 121C542.648 119.96 542.368 118.76 542.368 117.4C542.368 116.056 542.656 114.872 543.232 113.848C543.824 112.808 544.624 112.016 545.632 111.472C546.64 110.912 547.768 110.632 549.016 110.632C550.264 110.632 551.392 110.912 552.4 111.472C553.408 112.016 554.2 112.8 554.776 113.824C555.368 114.848 555.664 116.04 555.664 117.4C555.664 118.76 555.36 119.96 554.752 121C554.16 122.024 553.352 122.816 552.328 123.376C551.304 123.936 550.168 124.216 548.92 124.216ZM548.92 122.296C549.704 122.296 550.44 122.112 551.128 121.744C551.816 121.376 552.368 120.824 552.784 120.088C553.216 119.352 553.432 118.456 553.432 117.4C553.432 116.344 553.224 115.448 552.808 114.712C552.392 113.976 551.848 113.432 551.176 113.08C550.504 112.712 549.776 112.528 548.992 112.528C548.192 112.528 547.456 112.712 546.784 113.08C546.128 113.432 545.6 113.976 545.2 114.712C544.8 115.448 544.6 116.344 544.6 117.4C544.6 118.472 544.792 119.376 545.176 120.112C545.576 120.848 546.104 121.4 546.76 121.768C547.416 122.12 548.136 122.296 548.92 122.296ZM557.72 117.376C557.72 116.032 557.992 114.856 558.536 113.848C559.08 112.824 559.824 112.032 560.768 111.472C561.728 110.912 562.8 110.632 563.984 110.632C565.008 110.632 565.96 110.872 566.84 111.352C567.72 111.816 568.392 112.432 568.856 113.2V106.24H571.064V124H568.856V121.528C568.424 122.312 567.784 122.96 566.936 123.472C566.088 123.968 565.096 124.216 563.96 124.216C562.792 124.216 561.728 123.928 560.768 123.352C559.824 122.776 559.08 121.968 558.536 120.928C557.992 119.888 557.72 118.704 557.72 117.376ZM568.856 117.4C568.856 116.408 568.656 115.544 568.256 114.808C567.856 114.072 567.312 113.512 566.624 113.128C565.952 112.728 565.208 112.528 564.392 112.528C563.576 112.528 562.832 112.72 562.16 113.104C561.488 113.488 560.952 114.048 560.552 114.784C560.152 115.52 559.952 116.384 559.952 117.376C559.952 118.384 560.152 119.264 560.552 120.016C560.952 120.752 561.488 121.32 562.16 121.72C562.832 122.104 563.576 122.296 564.392 122.296C565.208 122.296 565.952 122.104 566.624 121.72C567.312 121.32 567.856 120.752 568.256 120.016C568.656 119.264 568.856 118.392 568.856 117.4Z" fill="#8C8F94"/>
<path d="M62.432 124.168C60.88 124.168 59.464 123.808 58.184 123.088C56.904 122.352 55.888 121.336 55.136 120.04C54.4 118.728 54.032 117.256 54.032 115.624C54.032 113.992 54.4 112.528 55.136 111.232C55.888 109.92 56.904 108.904 58.184 108.184C59.464 107.448 60.88 107.08 62.432 107.08C64 107.08 65.424 107.448 66.704 108.184C67.984 108.904 68.992 109.912 69.728 111.208C70.464 112.504 70.832 113.976 70.832 115.624C70.832 117.272 70.464 118.744 69.728 120.04C68.992 121.336 67.984 122.352 66.704 123.088C65.424 123.808 64 124.168 62.432 124.168ZM62.432 122.272C63.6 122.272 64.648 122 65.576 121.456C66.52 120.912 67.256 120.136 67.784 119.128C68.328 118.12 68.6 116.952 68.6 115.624C68.6 114.28 68.328 113.112 67.784 112.12C67.256 111.112 66.528 110.336 65.6 109.792C64.672 109.248 63.616 108.976 62.432 108.976C61.248 108.976 60.192 109.248 59.264 109.792C58.336 110.336 57.6 111.112 57.056 112.12C56.528 113.112 56.264 114.28 56.264 115.624C56.264 116.952 56.528 118.12 57.056 119.128C57.6 120.136 58.336 120.912 59.264 121.456C60.208 122 61.264 122.272 62.432 122.272ZM84.8992 112.168C84.8992 113.56 84.4192 114.72 83.4592 115.648C82.5152 116.56 81.0672 117.016 79.1152 117.016H75.8992V124H73.7152V107.272H79.1152C81.0032 107.272 82.4352 107.728 83.4112 108.64C84.4032 109.552 84.8992 110.728 84.8992 112.168ZM79.1152 115.216C80.3312 115.216 81.2272 114.952 81.8032 114.424C82.3792 113.896 82.6672 113.144 82.6672 112.168C82.6672 110.104 81.4832 109.072 79.1152 109.072H75.8992V115.216H79.1152ZM97.9096 107.272V109.048H93.3496V124H91.1656V109.048H86.5816V107.272H97.9096ZM109.718 114.28V116.128H100.142V114.28H109.718ZM112.881 108.64V106.648H117.393V124H115.185V108.64H112.881ZM132.208 108.544H123.784V114.016C124.152 113.504 124.696 113.088 125.416 112.768C126.136 112.432 126.912 112.264 127.744 112.264C129.072 112.264 130.152 112.544 130.984 113.104C131.816 113.648 132.408 114.36 132.76 115.24C133.128 116.104 133.312 117.024 133.312 118C133.312 119.152 133.096 120.184 132.664 121.096C132.232 122.008 131.568 122.728 130.672 123.256C129.792 123.784 128.696 124.048 127.384 124.048C125.704 124.048 124.344 123.616 123.304 122.752C122.264 121.888 121.632 120.736 121.408 119.296H123.544C123.752 120.208 124.192 120.92 124.864 121.432C125.536 121.944 126.384 122.2 127.408 122.2C128.672 122.2 129.624 121.824 130.264 121.072C130.904 120.304 131.224 119.296 131.224 118.048C131.224 116.8 130.904 115.84 130.264 115.168C129.624 114.48 128.68 114.136 127.432 114.136C126.584 114.136 125.84 114.344 125.2 114.76C124.576 115.16 124.12 115.712 123.832 116.416H121.768V106.624H132.208V108.544ZM145.887 110.776C145.535 109 144.439 108.112 142.599 108.112C141.175 108.112 140.111 108.664 139.407 109.768C138.703 110.856 138.359 112.656 138.375 115.168C138.743 114.336 139.351 113.688 140.199 113.224C141.063 112.744 142.023 112.504 143.079 112.504C144.727 112.504 146.039 113.016 147.015 114.04C148.007 115.064 148.503 116.48 148.503 118.288C148.503 119.376 148.287 120.352 147.855 121.216C147.439 122.08 146.799 122.768 145.935 123.28C145.087 123.792 144.055 124.048 142.839 124.048C141.191 124.048 139.903 123.68 138.975 122.944C138.047 122.208 137.399 121.192 137.031 119.896C136.663 118.6 136.479 117 136.479 115.096C136.479 109.224 138.527 106.288 142.623 106.288C144.191 106.288 145.423 106.712 146.319 107.56C147.215 108.408 147.743 109.48 147.903 110.776H145.887ZM142.623 114.352C141.935 114.352 141.287 114.496 140.679 114.784C140.071 115.056 139.575 115.48 139.191 116.056C138.823 116.616 138.639 117.304 138.639 118.12C138.639 119.336 138.991 120.328 139.695 121.096C140.399 121.848 141.407 122.224 142.719 122.224C143.839 122.224 144.727 121.88 145.383 121.192C146.055 120.488 146.391 119.544 146.391 118.36C146.391 117.112 146.071 116.136 145.431 115.432C144.791 114.712 143.855 114.352 142.623 114.352ZM162.129 108.352L155.457 124H153.249L160.017 108.568H150.753V106.696H162.129V108.352Z" fill="#8C8F94"/>
<rect x="181.5" y="105.5" width="22" height="22" rx="2.5" fill="#161719" stroke="#1ED760"/>
<rect x="183" y="107" width="19" height="19" rx="3" fill="#1ED760"/>
<path d="M238.032 208.168C238.032 209.56 237.552 210.72 236.592 211.648C235.648 212.56 234.2 213.016 232.248 213.016H229.032V220H226.848V203.272H232.248C234.136 203.272 235.568 203.728 236.544 204.64C237.536 205.552 238.032 206.728 238.032 208.168ZM232.248 211.216C233.464 211.216 234.36 210.952 234.936 210.424C235.512 209.896 235.8 209.144 235.8 208.168C235.8 206.104 234.616 205.072 232.248 205.072H229.032V211.216H232.248ZM242.93 208.984C243.314 208.232 243.858 207.648 244.562 207.232C245.282 206.816 246.154 206.608 247.178 206.608V208.864H246.602C244.154 208.864 242.93 210.192 242.93 212.848V220H240.746V206.848H242.93V208.984ZM255.436 220.216C254.204 220.216 253.084 219.936 252.076 219.376C251.084 218.816 250.3 218.024 249.724 217C249.164 215.96 248.884 214.76 248.884 213.4C248.884 212.056 249.172 210.872 249.748 209.848C250.34 208.808 251.14 208.016 252.148 207.472C253.156 206.912 254.284 206.632 255.532 206.632C256.78 206.632 257.908 206.912 258.916 207.472C259.924 208.016 260.716 208.8 261.292 209.824C261.884 210.848 262.18 212.04 262.18 213.4C262.18 214.76 261.876 215.96 261.268 217C260.676 218.024 259.868 218.816 258.844 219.376C257.82 219.936 256.684 220.216 255.436 220.216ZM255.436 218.296C256.22 218.296 256.956 218.112 257.644 217.744C258.332 217.376 258.884 216.824 259.3 216.088C259.732 215.352 259.948 214.456 259.948 213.4C259.948 212.344 259.74 211.448 259.324 210.712C258.908 209.976 258.364 209.432 257.692 209.08C257.02 208.712 256.292 208.528 255.508 208.528C254.708 208.528 253.972 208.712 253.3 209.08C252.644 209.432 252.116 209.976 251.716 210.712C251.316 211.448 251.116 212.344 251.116 213.4C251.116 214.472 251.308 215.376 251.692 216.112C252.092 216.848 252.62 217.4 253.276 217.768C253.932 218.12 254.652 218.296 255.436 218.296ZM267.715 208.648V216.4C267.715 217.04 267.851 217.496 268.123 217.768C268.395 218.024 268.867 218.152 269.539 218.152H271.147V220H269.179C267.963 220 267.051 219.72 266.443 219.16C265.835 218.6 265.531 217.68 265.531 216.4V208.648H263.827V206.848H265.531V203.536H267.715V206.848H271.147V208.648H267.715ZM285.793 212.92C285.793 213.336 285.769 213.776 285.721 214.24H275.209C275.289 215.536 275.729 216.552 276.529 217.288C277.345 218.008 278.329 218.368 279.481 218.368C280.425 218.368 281.209 218.152 281.833 217.72C282.473 217.272 282.921 216.68 283.177 215.944H285.529C285.177 217.208 284.473 218.24 283.417 219.04C282.361 219.824 281.049 220.216 279.481 220.216C278.233 220.216 277.113 219.936 276.121 219.376C275.145 218.816 274.377 218.024 273.817 217C273.257 215.96 272.977 214.76 272.977 213.4C272.977 212.04 273.249 210.848 273.793 209.824C274.337 208.8 275.097 208.016 276.073 207.472C277.065 206.912 278.201 206.632 279.481 206.632C280.729 206.632 281.833 206.904 282.793 207.448C283.753 207.992 284.489 208.744 285.001 209.704C285.529 210.648 285.793 211.72 285.793 212.92ZM283.537 212.464C283.537 211.632 283.353 210.92 282.985 210.328C282.617 209.72 282.113 209.264 281.473 208.96C280.849 208.64 280.153 208.48 279.385 208.48C278.281 208.48 277.337 208.832 276.553 209.536C275.785 210.24 275.345 211.216 275.233 212.464H283.537ZM289.804 204.712C289.388 204.712 289.036 204.568 288.748 204.28C288.46 203.992 288.316 203.64 288.316 203.224C288.316 202.808 288.46 202.456 288.748 202.168C289.036 201.88 289.388 201.736 289.804 201.736C290.204 201.736 290.54 201.88 290.812 202.168C291.1 202.456 291.244 202.808 291.244 203.224C291.244 203.64 291.1 203.992 290.812 204.28C290.54 204.568 290.204 204.712 289.804 204.712ZM290.86 206.848V220H288.676V206.848H290.86ZM300.99 206.608C302.59 206.608 303.886 207.096 304.878 208.072C305.87 209.032 306.366 210.424 306.366 212.248V220H304.206V212.56C304.206 211.248 303.878 210.248 303.222 209.56C302.566 208.856 301.67 208.504 300.534 208.504C299.382 208.504 298.462 208.864 297.774 209.584C297.102 210.304 296.766 211.352 296.766 212.728V220H294.582V206.848H296.766V208.72C297.198 208.048 297.782 207.528 298.518 207.16C299.27 206.792 300.094 206.608 300.99 206.608ZM314.59 220.216C313.582 220.216 312.678 220.048 311.878 219.712C311.078 219.36 310.446 218.88 309.982 218.272C309.518 217.648 309.262 216.936 309.214 216.136H311.47C311.534 216.792 311.838 217.328 312.382 217.744C312.942 218.16 313.67 218.368 314.566 218.368C315.398 218.368 316.054 218.184 316.534 217.816C317.014 217.448 317.254 216.984 317.254 216.424C317.254 215.848 316.998 215.424 316.486 215.152C315.974 214.864 315.182 214.584 314.11 214.312C313.134 214.056 312.334 213.8 311.71 213.544C311.102 213.272 310.574 212.88 310.126 212.368C309.694 211.84 309.478 211.152 309.478 210.304C309.478 209.632 309.678 209.016 310.078 208.456C310.478 207.896 311.046 207.456 311.782 207.136C312.518 206.8 313.358 206.632 314.302 206.632C315.758 206.632 316.934 207 317.83 207.736C318.726 208.472 319.206 209.48 319.27 210.76H317.086C317.038 210.072 316.758 209.52 316.246 209.104C315.75 208.688 315.078 208.48 314.23 208.48C313.446 208.48 312.822 208.648 312.358 208.984C311.894 209.32 311.662 209.76 311.662 210.304C311.662 210.736 311.798 211.096 312.07 211.384C312.358 211.656 312.71 211.88 313.126 212.056C313.558 212.216 314.15 212.4 314.902 212.608C315.846 212.864 316.614 213.12 317.206 213.376C317.798 213.616 318.302 213.984 318.718 214.48C319.15 214.976 319.374 215.624 319.39 216.424C319.39 217.144 319.19 217.792 318.79 218.368C318.39 218.944 317.822 219.4 317.086 219.736C316.366 220.056 315.534 220.216 314.59 220.216ZM331.535 208.648V216.4C331.535 217.04 331.671 217.496 331.943 217.768C332.215 218.024 332.687 218.152 333.359 218.152H334.967V220H332.999C331.783 220 330.871 219.72 330.263 219.16C329.655 218.6 329.351 217.68 329.351 216.4V208.648H327.647V206.848H329.351V203.536H331.535V206.848H334.967V208.648H331.535ZM344.142 206.608C345.134 206.608 346.03 206.824 346.83 207.256C347.63 207.672 348.254 208.304 348.702 209.152C349.166 210 349.398 211.032 349.398 212.248V220H347.238V212.56C347.238 211.248 346.91 210.248 346.254 209.56C345.598 208.856 344.702 208.504 343.566 208.504C342.414 208.504 341.494 208.864 340.806 209.584C340.134 210.304 339.798 211.352 339.798 212.728V220H337.614V202.24H339.798V208.72C340.23 208.048 340.822 207.528 341.574 207.16C342.342 206.792 343.198 206.608 344.142 206.608ZM352.149 213.376C352.149 212.032 352.421 210.856 352.965 209.848C353.509 208.824 354.253 208.032 355.197 207.472C356.157 206.912 357.221 206.632 358.389 206.632C359.541 206.632 360.541 206.88 361.389 207.376C362.237 207.872 362.869 208.496 363.285 209.248V206.848H365.493V220H363.285V217.552C362.853 218.32 362.205 218.96 361.341 219.472C360.493 219.968 359.501 220.216 358.365 220.216C357.197 220.216 356.141 219.928 355.197 219.352C354.253 218.776 353.509 217.968 352.965 216.928C352.421 215.888 352.149 214.704 352.149 213.376ZM363.285 213.4C363.285 212.408 363.085 211.544 362.685 210.808C362.285 210.072 361.741 209.512 361.053 209.128C360.381 208.728 359.637 208.528 358.821 208.528C358.005 208.528 357.261 208.72 356.589 209.104C355.917 209.488 355.381 210.048 354.981 210.784C354.581 211.52 354.381 212.384 354.381 213.376C354.381 214.384 354.581 215.264 354.981 216.016C355.381 216.752 355.917 217.32 356.589 217.72C357.261 218.104 358.005 218.296 358.821 218.296C359.637 218.296 360.381 218.104 361.053 217.72C361.741 217.32 362.285 216.752 362.685 216.016C363.085 215.264 363.285 214.392 363.285 213.4ZM371.848 208.648V216.4C371.848 217.04 371.984 217.496 372.256 217.768C372.528 218.024 373 218.152 373.672 218.152H375.28V220H373.312C372.096 220 371.184 219.72 370.576 219.16C369.968 218.6 369.664 217.68 369.664 216.4V208.648H367.96V206.848H369.664V203.536H371.848V206.848H375.28V208.648H371.848ZM388.981 220.216C387.973 220.216 387.069 220.048 386.269 219.712C385.469 219.36 384.837 218.88 384.373 218.272C383.909 217.648 383.653 216.936 383.605 216.136H385.861C385.925 216.792 386.229 217.328 386.773 217.744C387.333 218.16 388.061 218.368 388.957 218.368C389.789 218.368 390.445 218.184 390.925 217.816C391.405 217.448 391.645 216.984 391.645 216.424C391.645 215.848 391.389 215.424 390.877 215.152C390.365 214.864 389.573 214.584 388.501 214.312C387.525 214.056 386.725 213.8 386.101 213.544C385.493 213.272 384.965 212.88 384.517 212.368C384.085 211.84 383.869 211.152 383.869 210.304C383.869 209.632 384.069 209.016 384.469 208.456C384.869 207.896 385.437 207.456 386.173 207.136C386.909 206.8 387.749 206.632 388.693 206.632C390.149 206.632 391.325 207 392.221 207.736C393.117 208.472 393.597 209.48 393.661 210.76H391.477C391.429 210.072 391.149 209.52 390.637 209.104C390.141 208.688 389.469 208.48 388.621 208.48C387.837 208.48 387.213 208.648 386.749 208.984C386.285 209.32 386.053 209.76 386.053 210.304C386.053 210.736 386.189 211.096 386.461 211.384C386.749 211.656 387.101 211.88 387.517 212.056C387.949 212.216 388.541 212.4 389.293 212.608C390.237 212.864 391.005 213.12 391.597 213.376C392.189 213.616 392.693 213.984 393.109 214.48C393.541 214.976 393.765 215.624 393.781 216.424C393.781 217.144 393.581 217.792 393.181 218.368C392.781 218.944 392.213 219.4 391.477 219.736C390.757 220.056 389.925 220.216 388.981 220.216ZM399.048 209.272C399.48 208.52 400.12 207.896 400.968 207.4C401.832 206.888 402.832 206.632 403.968 206.632C405.136 206.632 406.192 206.912 407.136 207.472C408.096 208.032 408.848 208.824 409.392 209.848C409.936 210.856 410.208 212.032 410.208 213.376C410.208 214.704 409.936 215.888 409.392 216.928C408.848 217.968 408.096 218.776 407.136 219.352C406.192 219.928 405.136 220.216 403.968 220.216C402.848 220.216 401.856 219.968 400.992 219.472C400.144 218.96 399.496 218.328 399.048 217.576V226.24H396.864V206.848H399.048V209.272ZM407.976 213.376C407.976 212.384 407.776 211.52 407.376 210.784C406.976 210.048 406.432 209.488 405.744 209.104C405.072 208.72 404.328 208.528 403.512 208.528C402.712 208.528 401.968 208.728 401.28 209.128C400.608 209.512 400.064 210.08 399.648 210.832C399.248 211.568 399.048 212.424 399.048 213.4C399.048 214.392 399.248 215.264 399.648 216.016C400.064 216.752 400.608 217.32 401.28 217.72C401.968 218.104 402.712 218.296 403.512 218.296C404.328 218.296 405.072 218.104 405.744 217.72C406.432 217.32 406.976 216.752 407.376 216.016C407.776 215.264 407.976 214.384 407.976 213.376ZM425.082 212.92C425.082 213.336 425.058 213.776 425.01 214.24H414.498C414.578 215.536 415.018 216.552 415.818 217.288C416.634 218.008 417.618 218.368 418.77 218.368C419.714 218.368 420.498 218.152 421.122 217.72C421.762 217.272 422.21 216.68 422.466 215.944H424.818C424.466 217.208 423.762 218.24 422.706 219.04C421.65 219.824 420.338 220.216 418.77 220.216C417.522 220.216 416.402 219.936 415.41 219.376C414.434 218.816 413.666 218.024 413.106 217C412.546 215.96 412.266 214.76 412.266 213.4C412.266 212.04 412.538 210.848 413.082 209.824C413.626 208.8 414.386 208.016 415.362 207.472C416.354 206.912 417.49 206.632 418.77 206.632C420.018 206.632 421.122 206.904 422.082 207.448C423.042 207.992 423.778 208.744 424.29 209.704C424.818 210.648 425.082 211.72 425.082 212.92ZM422.826 212.464C422.826 211.632 422.642 210.92 422.274 210.328C421.906 209.72 421.402 209.264 420.762 208.96C420.138 208.64 419.442 208.48 418.674 208.48C417.57 208.48 416.626 208.832 415.842 209.536C415.074 210.24 414.634 211.216 414.522 212.464H422.826ZM439.965 212.92C439.965 213.336 439.941 213.776 439.893 214.24H429.381C429.461 215.536 429.901 216.552 430.701 217.288C431.517 218.008 432.501 218.368 433.653 218.368C434.597 218.368 435.381 218.152 436.005 217.72C436.645 217.272 437.093 216.68 437.349 215.944H439.701C439.349 217.208 438.645 218.24 437.589 219.04C436.533 219.824 435.221 220.216 433.653 220.216C432.405 220.216 431.285 219.936 430.293 219.376C429.317 218.816 428.549 218.024 427.989 217C427.429 215.96 427.149 214.76 427.149 213.4C427.149 212.04 427.421 210.848 427.965 209.824C428.509 208.8 429.269 208.016 430.245 207.472C431.237 206.912 432.373 206.632 433.653 206.632C434.901 206.632 436.005 206.904 436.965 207.448C437.925 207.992 438.661 208.744 439.173 209.704C439.701 210.648 439.965 211.72 439.965 212.92ZM437.709 212.464C437.709 211.632 437.525 210.92 437.157 210.328C436.789 209.72 436.285 209.264 435.645 208.96C435.021 208.64 434.325 208.48 433.557 208.48C432.453 208.48 431.509 208.832 430.725 209.536C429.957 210.24 429.517 211.216 429.405 212.464H437.709ZM442.032 213.376C442.032 212.032 442.304 210.856 442.848 209.848C443.392 208.824 444.136 208.032 445.08 207.472C446.04 206.912 447.112 206.632 448.296 206.632C449.32 206.632 450.272 206.872 451.152 207.352C452.032 207.816 452.704 208.432 453.168 209.2V202.24H455.376V220H453.168V217.528C452.736 218.312 452.096 218.96 451.248 219.472C450.4 219.968 449.408 220.216 448.272 220.216C447.104 220.216 446.04 219.928 445.08 219.352C444.136 218.776 443.392 217.968 442.848 216.928C442.304 215.888 442.032 214.704 442.032 213.376ZM453.168 213.4C453.168 212.408 452.968 211.544 452.568 210.808C452.168 210.072 451.624 209.512 450.936 209.128C450.264 208.728 449.52 208.528 448.704 208.528C447.888 208.528 447.144 208.72 446.472 209.104C445.8 209.488 445.264 210.048 444.864 210.784C444.464 211.52 444.264 212.384 444.264 213.376C444.264 214.384 444.464 215.264 444.864 216.016C445.264 216.752 445.8 217.32 446.472 217.72C447.144 218.104 447.888 218.296 448.704 218.296C449.52 218.296 450.264 218.104 450.936 217.72C451.624 217.32 452.168 216.752 452.568 216.016C452.968 215.264 453.168 214.392 453.168 213.4ZM477.129 206.848V220H474.945V218.056C474.529 218.728 473.945 219.256 473.193 219.64C472.457 220.008 471.641 220.192 470.745 220.192C469.721 220.192 468.801 219.984 467.985 219.568C467.169 219.136 466.521 218.496 466.041 217.648C465.577 216.8 465.345 215.768 465.345 214.552V206.848H467.505V214.264C467.505 215.56 467.833 216.56 468.489 217.264C469.145 217.952 470.041 218.296 471.177 218.296C472.345 218.296 473.265 217.936 473.937 217.216C474.609 216.496 474.945 215.448 474.945 214.072V206.848H477.129ZM483.001 209.272C483.433 208.52 484.073 207.896 484.921 207.4C485.785 206.888 486.785 206.632 487.921 206.632C489.089 206.632 490.145 206.912 491.089 207.472C492.049 208.032 492.801 208.824 493.345 209.848C493.889 210.856 494.161 212.032 494.161 213.376C494.161 214.704 493.889 215.888 493.345 216.928C492.801 217.968 492.049 218.776 491.089 219.352C490.145 219.928 489.089 220.216 487.921 220.216C486.801 220.216 485.809 219.968 484.945 219.472C484.097 218.96 483.449 218.328 483.001 217.576V226.24H480.817V206.848H483.001V209.272ZM491.929 213.376C491.929 212.384 491.729 211.52 491.329 210.784C490.929 210.048 490.385 209.488 489.697 209.104C489.025 208.72 488.281 208.528 487.465 208.528C486.665 208.528 485.921 208.728 485.233 209.128C484.561 209.512 484.017 210.08 483.601 210.832C483.201 211.568 483.001 212.424 483.001 213.4C483.001 214.392 483.201 215.264 483.601 216.016C484.017 216.752 484.561 217.32 485.233 217.72C485.921 218.104 486.665 218.296 487.465 218.296C488.281 218.296 489.025 218.104 489.697 217.72C490.385 217.32 490.929 216.752 491.329 216.016C491.729 215.264 491.929 214.384 491.929 213.376ZM502.618 213.4C502.618 212.04 502.89 210.856 503.434 209.848C503.978 208.824 504.73 208.032 505.69 207.472C506.666 206.912 507.778 206.632 509.026 206.632C510.642 206.632 511.97 207.024 513.01 207.808C514.066 208.592 514.762 209.68 515.098 211.072H512.746C512.522 210.272 512.082 209.64 511.426 209.176C510.786 208.712 509.986 208.48 509.026 208.48C507.778 208.48 506.77 208.912 506.002 209.776C505.234 210.624 504.85 211.832 504.85 213.4C504.85 214.984 505.234 216.208 506.002 217.072C506.77 217.936 507.778 218.368 509.026 218.368C509.986 218.368 510.786 218.144 511.426 217.696C512.066 217.248 512.506 216.608 512.746 215.776H515.098C514.746 217.12 514.042 218.2 512.986 219.016C511.93 219.816 510.61 220.216 509.026 220.216C507.778 220.216 506.666 219.936 505.69 219.376C504.73 218.816 503.978 218.024 503.434 217C502.89 215.976 502.618 214.776 502.618 213.4ZM524.54 206.608C525.532 206.608 526.428 206.824 527.228 207.256C528.028 207.672 528.652 208.304 529.1 209.152C529.564 210 529.796 211.032 529.796 212.248V220H527.636V212.56C527.636 211.248 527.308 210.248 526.652 209.56C525.996 208.856 525.1 208.504 523.964 208.504C522.812 208.504 521.892 208.864 521.204 209.584C520.532 210.304 520.196 211.352 520.196 212.728V220H518.012V202.24H520.196V208.72C520.628 208.048 521.22 207.528 521.972 207.16C522.74 206.792 523.596 206.608 524.54 206.608ZM545.364 212.92C545.364 213.336 545.34 213.776 545.292 214.24H534.78C534.86 215.536 535.3 216.552 536.1 217.288C536.916 218.008 537.9 218.368 539.052 218.368C539.996 218.368 540.78 218.152 541.404 217.72C542.044 217.272 542.492 216.68 542.748 215.944H545.1C544.748 217.208 544.044 218.24 542.988 219.04C541.932 219.824 540.62 220.216 539.052 220.216C537.804 220.216 536.684 219.936 535.692 219.376C534.716 218.816 533.948 218.024 533.388 217C532.828 215.96 532.548 214.76 532.548 213.4C532.548 212.04 532.82 210.848 533.364 209.824C533.908 208.8 534.668 208.016 535.644 207.472C536.636 206.912 537.772 206.632 539.052 206.632C540.3 206.632 541.404 206.904 542.364 207.448C543.324 207.992 544.06 208.744 544.572 209.704C545.1 210.648 545.364 211.72 545.364 212.92ZM543.108 212.464C543.108 211.632 542.924 210.92 542.556 210.328C542.188 209.72 541.684 209.264 541.044 208.96C540.42 208.64 539.724 208.48 538.956 208.48C537.852 208.48 536.908 208.832 536.124 209.536C535.356 210.24 534.916 211.216 534.804 212.464H543.108ZM564.062 206.608C565.086 206.608 565.998 206.824 566.798 207.256C567.598 207.672 568.23 208.304 568.694 209.152C569.158 210 569.39 211.032 569.39 212.248V220H567.23V212.56C567.23 211.248 566.902 210.248 566.246 209.56C565.606 208.856 564.734 208.504 563.63 208.504C562.494 208.504 561.59 208.872 560.918 209.608C560.246 210.328 559.91 211.376 559.91 212.752V220H557.75V212.56C557.75 211.248 557.422 210.248 556.766 209.56C556.126 208.856 555.254 208.504 554.15 208.504C553.014 208.504 552.11 208.872 551.438 209.608C550.766 210.328 550.43 211.376 550.43 212.752V220H548.246V206.848H550.43V208.744C550.862 208.056 551.438 207.528 552.158 207.16C552.894 206.792 553.702 206.608 554.582 206.608C555.686 206.608 556.662 206.856 557.51 207.352C558.358 207.848 558.99 208.576 559.406 209.536C559.774 208.608 560.382 207.888 561.23 207.376C562.078 206.864 563.022 206.608 564.062 206.608ZM574.101 204.712C573.685 204.712 573.333 204.568 573.045 204.28C572.757 203.992 572.613 203.64 572.613 203.224C572.613 202.808 572.757 202.456 573.045 202.168C573.333 201.88 573.685 201.736 574.101 201.736C574.501 201.736 574.837 201.88 575.109 202.168C575.397 202.456 575.541 202.808 575.541 203.224C575.541 203.64 575.397 203.992 575.109 204.28C574.837 204.568 574.501 204.712 574.101 204.712ZM575.157 206.848V220H572.973V206.848H575.157ZM578.063 213.4C578.063 212.04 578.335 210.856 578.879 209.848C579.423 208.824 580.175 208.032 581.135 207.472C582.111 206.912 583.223 206.632 584.471 206.632C586.087 206.632 587.415 207.024 588.455 207.808C589.511 208.592 590.207 209.68 590.543 211.072H588.191C587.967 210.272 587.527 209.64 586.871 209.176C586.231 208.712 585.431 208.48 584.471 208.48C583.223 208.48 582.215 208.912 581.447 209.776C580.679 210.624 580.295 211.832 580.295 213.4C580.295 214.984 580.679 216.208 581.447 217.072C582.215 217.936 583.223 218.368 584.471 218.368C585.431 218.368 586.231 218.144 586.871 217.696C587.511 217.248 587.951 216.608 588.191 215.776H590.543C590.191 217.12 589.487 218.2 588.431 219.016C587.375 219.816 586.055 220.216 584.471 220.216C583.223 220.216 582.111 219.936 581.135 219.376C580.175 218.816 579.423 218.024 578.879 217C578.335 215.976 578.063 214.776 578.063 213.4ZM592.641 213.376C592.641 212.032 592.913 210.856 593.457 209.848C594.001 208.824 594.745 208.032 595.689 207.472C596.649 206.912 597.713 206.632 598.881 206.632C600.033 206.632 601.033 206.88 601.881 207.376C602.729 207.872 603.361 208.496 603.777 209.248V206.848H605.985V220H603.777V217.552C603.345 218.32 602.697 218.96 601.833 219.472C600.985 219.968 599.993 220.216 598.857 220.216C597.689 220.216 596.633 219.928 595.689 219.352C594.745 218.776 594.001 217.968 593.457 216.928C592.913 215.888 592.641 214.704 592.641 213.376ZM603.777 213.4C603.777 212.408 603.577 211.544 603.177 210.808C602.777 210.072 602.233 209.512 601.545 209.128C600.873 208.728 600.129 208.528 599.313 208.528C598.497 208.528 597.753 208.72 597.081 209.104C596.409 209.488 595.873 210.048 595.473 210.784C595.073 211.52 594.873 212.384 594.873 213.376C594.873 214.384 595.073 215.264 595.473 216.016C595.873 216.752 596.409 217.32 597.081 217.72C597.753 218.104 598.497 218.296 599.313 218.296C600.129 218.296 600.873 218.104 601.545 217.72C602.233 217.32 602.777 216.752 603.177 216.016C603.577 215.264 603.777 214.392 603.777 213.4ZM611.86 202.24V220H609.676V202.24H611.86ZM624.165 208.984C624.549 208.232 625.093 207.648 625.797 207.232C626.517 206.816 627.389 206.608 628.413 206.608V208.864H627.837C625.389 208.864 624.165 210.192 624.165 212.848V220H621.981V206.848H624.165V208.984ZM642.934 212.92C642.934 213.336 642.91 213.776 642.862 214.24H632.35C632.43 215.536 632.87 216.552 633.67 217.288C634.486 218.008 635.47 218.368 636.622 218.368C637.566 218.368 638.35 218.152 638.974 217.72C639.614 217.272 640.062 216.68 640.318 215.944H642.67C642.318 217.208 641.614 218.24 640.558 219.04C639.502 219.824 638.19 220.216 636.622 220.216C635.374 220.216 634.254 219.936 633.262 219.376C632.286 218.816 631.518 218.024 630.958 217C630.398 215.96 630.118 214.76 630.118 213.4C630.118 212.04 630.39 210.848 630.934 209.824C631.478 208.8 632.238 208.016 633.214 207.472C634.206 206.912 635.342 206.632 636.622 206.632C637.87 206.632 638.974 206.904 639.934 207.448C640.894 207.992 641.63 208.744 642.142 209.704C642.67 210.648 642.934 211.72 642.934 212.92ZM640.678 212.464C640.678 211.632 640.494 210.92 640.126 210.328C639.758 209.72 639.254 209.264 638.614 208.96C637.99 208.64 637.294 208.48 636.526 208.48C635.422 208.48 634.478 208.832 633.694 209.536C632.926 210.24 632.486 211.216 632.374 212.464H640.678ZM645.001 213.376C645.001 212.032 645.273 210.856 645.817 209.848C646.361 208.824 647.105 208.032 648.049 207.472C649.009 206.912 650.073 206.632 651.241 206.632C652.393 206.632 653.393 206.88 654.241 207.376C655.089 207.872 655.721 208.496 656.137 209.248V206.848H658.345V220H656.137V217.552C655.705 218.32 655.057 218.96 654.193 219.472C653.345 219.968 652.353 220.216 651.217 220.216C650.049 220.216 648.993 219.928 648.049 219.352C647.105 218.776 646.361 217.968 645.817 216.928C645.273 215.888 645.001 214.704 645.001 213.376ZM656.137 213.4C656.137 212.408 655.937 211.544 655.537 210.808C655.137 210.072 654.593 209.512 653.905 209.128C653.233 208.728 652.489 208.528 651.673 208.528C650.857 208.528 650.113 208.72 649.441 209.104C648.769 209.488 648.233 210.048 647.833 210.784C647.433 211.52 647.233 212.384 647.233 213.376C647.233 214.384 647.433 215.264 647.833 216.016C648.233 216.752 648.769 217.32 649.441 217.72C650.113 218.104 650.857 218.296 651.673 218.296C652.489 218.296 653.233 218.104 653.905 217.72C654.593 217.32 655.137 216.752 655.537 216.016C655.937 215.264 656.137 214.392 656.137 213.4ZM661.22 213.4C661.22 212.04 661.492 210.856 662.036 209.848C662.58 208.824 663.332 208.032 664.292 207.472C665.268 206.912 666.38 206.632 667.628 206.632C669.244 206.632 670.572 207.024 671.612 207.808C672.668 208.592 673.364 209.68 673.7 211.072H671.348C671.124 210.272 670.684 209.64 670.028 209.176C669.388 208.712 668.588 208.48 667.628 208.48C666.38 208.48 665.372 208.912 664.604 209.776C663.836 210.624 663.452 211.832 663.452 213.4C663.452 214.984 663.836 216.208 664.604 217.072C665.372 217.936 666.38 218.368 667.628 218.368C668.588 218.368 669.388 218.144 670.028 217.696C670.668 217.248 671.108 216.608 671.348 215.776H673.7C673.348 217.12 672.644 218.2 671.588 219.016C670.532 219.816 669.212 220.216 667.628 220.216C666.38 220.216 665.268 219.936 664.292 219.376C663.332 218.816 662.58 218.024 662.036 217C661.492 215.976 661.22 214.776 661.22 213.4ZM679.278 208.648V216.4C679.278 217.04 679.414 217.496 679.686 217.768C679.958 218.024 680.43 218.152 681.102 218.152H682.71V220H680.742C679.526 220 678.614 219.72 678.006 219.16C677.398 218.6 677.094 217.68 677.094 216.4V208.648H675.39V206.848H677.094V203.536H679.278V206.848H682.71V208.648H679.278ZM686.484 204.712C686.068 204.712 685.716 204.568 685.428 204.28C685.14 203.992 684.996 203.64 684.996 203.224C684.996 202.808 685.14 202.456 685.428 202.168C685.716 201.88 686.068 201.736 686.484 201.736C686.884 201.736 687.22 201.88 687.492 202.168C687.78 202.456 687.924 202.808 687.924 203.224C687.924 203.64 687.78 203.992 687.492 204.28C687.22 204.568 686.884 204.712 686.484 204.712ZM687.54 206.848V220H685.356V206.848H687.54ZM696.998 220.216C695.766 220.216 694.646 219.936 693.638 219.376C692.646 218.816 691.862 218.024 691.286 217C690.726 215.96 690.446 214.76 690.446 213.4C690.446 212.056 690.734 210.872 691.31 209.848C691.902 208.808 692.702 208.016 693.71 207.472C694.718 206.912 695.846 206.632 697.094 206.632C698.342 206.632 699.47 206.912 700.478 207.472C701.486 208.016 702.278 208.8 702.854 209.824C703.446 210.848 703.742 212.04 703.742 213.4C703.742 214.76 703.438 215.96 702.83 217C702.238 218.024 701.43 218.816 700.406 219.376C699.382 219.936 698.246 220.216 696.998 220.216ZM696.998 218.296C697.782 218.296 698.518 218.112 699.206 217.744C699.894 217.376 700.446 216.824 700.862 216.088C701.294 215.352 701.51 214.456 701.51 213.4C701.51 212.344 701.302 211.448 700.886 210.712C700.47 209.976 699.926 209.432 699.254 209.08C698.582 208.712 697.854 208.528 697.07 208.528C696.27 208.528 695.534 208.712 694.862 209.08C694.206 209.432 693.678 209.976 693.278 210.712C692.878 211.448 692.678 212.344 692.678 213.4C692.678 214.472 692.87 215.376 693.254 216.112C693.654 216.848 694.182 217.4 694.838 217.768C695.494 218.12 696.214 218.296 696.998 218.296ZM713.022 206.608C714.622 206.608 715.918 207.096 716.91 208.072C717.902 209.032 718.398 210.424 718.398 212.248V220H716.238V212.56C716.238 211.248 715.91 210.248 715.254 209.56C714.598 208.856 713.702 208.504 712.566 208.504C711.414 208.504 710.494 208.864 709.806 209.584C709.134 210.304 708.798 211.352 708.798 212.728V220H706.614V206.848H708.798V208.72C709.23 208.048 709.814 207.528 710.55 207.16C711.302 206.792 712.126 206.608 713.022 206.608ZM726.621 220.216C725.613 220.216 724.709 220.048 723.909 219.712C723.109 219.36 722.477 218.88 722.013 218.272C721.549 217.648 721.293 216.936 721.245 216.136H723.501C723.565 216.792 723.869 217.328 724.413 217.744C724.973 218.16 725.701 218.368 726.597 218.368C727.429 218.368 728.085 218.184 728.565 217.816C729.045 217.448 729.285 216.984 729.285 216.424C729.285 215.848 729.029 215.424 728.517 215.152C728.005 214.864 727.213 214.584 726.141 214.312C725.165 214.056 724.365 213.8 723.741 213.544C723.133 213.272 722.605 212.88 722.157 212.368C721.725 211.84 721.509 211.152 721.509 210.304C721.509 209.632 721.709 209.016 722.109 208.456C722.509 207.896 723.077 207.456 723.813 207.136C724.549 206.8 725.389 206.632 726.333 206.632C727.789 206.632 728.965 207 729.861 207.736C730.757 208.472 731.237 209.48 731.301 210.76H729.117C729.069 210.072 728.789 209.52 728.277 209.104C727.781 208.688 727.109 208.48 726.261 208.48C725.477 208.48 724.853 208.648 724.389 208.984C723.925 209.32 723.693 209.76 723.693 210.304C723.693 210.736 723.829 211.096 724.101 211.384C724.389 211.656 724.741 211.88 725.157 212.056C725.589 212.216 726.181 212.4 726.933 212.608C727.877 212.864 728.645 213.12 729.237 213.376C729.829 213.616 730.333 213.984 730.749 214.48C731.181 214.976 731.405 215.624 731.421 216.424C731.421 217.144 731.221 217.792 730.821 218.368C730.421 218.944 729.853 219.4 729.117 219.736C728.397 220.056 727.565 220.216 726.621 220.216Z" fill="#8C8F94"/>
<path d="M62.432 220.168C60.88 220.168 59.464 219.808 58.184 219.088C56.904 218.352 55.888 217.336 55.136 216.04C54.4 214.728 54.032 213.256 54.032 211.624C54.032 209.992 54.4 208.528 55.136 207.232C55.888 205.92 56.904 204.904 58.184 204.184C59.464 203.448 60.88 203.08 62.432 203.08C64 203.08 65.424 203.448 66.704 204.184C67.984 204.904 68.992 205.912 69.728 207.208C70.464 208.504 70.832 209.976 70.832 211.624C70.832 213.272 70.464 214.744 69.728 216.04C68.992 217.336 67.984 218.352 66.704 219.088C65.424 219.808 64 220.168 62.432 220.168ZM62.432 218.272C63.6 218.272 64.648 218 65.576 217.456C66.52 216.912 67.256 216.136 67.784 215.128C68.328 214.12 68.6 212.952 68.6 211.624C68.6 210.28 68.328 209.112 67.784 208.12C67.256 207.112 66.528 206.336 65.6 205.792C64.672 205.248 63.616 204.976 62.432 204.976C61.248 204.976 60.192 205.248 59.264 205.792C58.336 206.336 57.6 207.112 57.056 208.12C56.528 209.112 56.264 210.28 56.264 211.624C56.264 212.952 56.528 214.12 57.056 215.128C57.6 216.136 58.336 216.912 59.264 217.456C60.208 218 61.264 218.272 62.432 218.272ZM84.8992 208.168C84.8992 209.56 84.4192 210.72 83.4592 211.648C82.5152 212.56 81.0672 213.016 79.1152 213.016H75.8992V220H73.7152V203.272H79.1152C81.0032 203.272 82.4352 203.728 83.4112 204.64C84.4032 205.552 84.8992 206.728 84.8992 208.168ZM79.1152 211.216C80.3312 211.216 81.2272 210.952 81.8032 210.424C82.3792 209.896 82.6672 209.144 82.6672 208.168C82.6672 206.104 81.4832 205.072 79.1152 205.072H75.8992V211.216H79.1152ZM97.9096 203.272V205.048H93.3496V220H91.1656V205.048H86.5816V203.272H97.9096ZM109.718 210.28V212.128H100.142V210.28H109.718ZM112.881 204.64V202.648H117.393V220H115.185V204.64H112.881ZM132.208 204.544H123.784V210.016C124.152 209.504 124.696 209.088 125.416 208.768C126.136 208.432 126.912 208.264 127.744 208.264C129.072 208.264 130.152 208.544 130.984 209.104C131.816 209.648 132.408 210.36 132.76 211.24C133.128 212.104 133.312 213.024 133.312 214C133.312 215.152 133.096 216.184 132.664 217.096C132.232 218.008 131.568 218.728 130.672 219.256C129.792 219.784 128.696 220.048 127.384 220.048C125.704 220.048 124.344 219.616 123.304 218.752C122.264 217.888 121.632 216.736 121.408 215.296H123.544C123.752 216.208 124.192 216.92 124.864 217.432C125.536 217.944 126.384 218.2 127.408 218.2C128.672 218.2 129.624 217.824 130.264 217.072C130.904 216.304 131.224 215.296 131.224 214.048C131.224 212.8 130.904 211.84 130.264 211.168C129.624 210.48 128.68 210.136 127.432 210.136C126.584 210.136 125.84 210.344 125.2 210.76C124.576 211.16 124.12 211.712 123.832 212.416H121.768V202.624H132.208V204.544ZM145.887 206.776C145.535 205 144.439 204.112 142.599 204.112C141.175 204.112 140.111 204.664 139.407 205.768C138.703 206.856 138.359 208.656 138.375 211.168C138.743 210.336 139.351 209.688 140.199 209.224C141.063 208.744 142.023 208.504 143.079 208.504C144.727 208.504 146.039 209.016 147.015 210.04C148.007 211.064 148.503 212.48 148.503 214.288C148.503 215.376 148.287 216.352 147.855 217.216C147.439 218.08 146.799 218.768 145.935 219.28C145.087 219.792 144.055 220.048 142.839 220.048C141.191 220.048 139.903 219.68 138.975 218.944C138.047 218.208 137.399 217.192 137.031 215.896C136.663 214.6 136.479 213 136.479 211.096C136.479 205.224 138.527 202.288 142.623 202.288C144.191 202.288 145.423 202.712 146.319 203.56C147.215 204.408 147.743 205.48 147.903 206.776H145.887ZM142.623 210.352C141.935 210.352 141.287 210.496 140.679 210.784C140.071 211.056 139.575 211.48 139.191 212.056C138.823 212.616 138.639 213.304 138.639 214.12C138.639 215.336 138.991 216.328 139.695 217.096C140.399 217.848 141.407 218.224 142.719 218.224C143.839 218.224 144.727 217.88 145.383 217.192C146.055 216.488 146.391 215.544 146.391 214.36C146.391 213.112 146.071 212.136 145.431 211.432C144.791 210.712 143.855 210.352 142.623 210.352ZM162.129 204.352L155.457 220H153.249L160.017 204.568H150.753V202.696H162.129V204.352Z" fill="#8C8F94"/>
<rect x="181.5" y="201.5" width="22" height="22" rx="2.5" fill="#161719" stroke="#8C8F94"/>
</svg>
